<svg xmlns="http://www.w3.org/2000/svg" xmlns:xlink="http://www.w3.org/1999/xlink" width="500" zoomAndPan="magnify" viewBox="0 0 375 374.999991" height="500" preserveAspectRatio="xMidYMid meet" version="1.0"><defs><g/><clipPath id="2cf81dcece"><path d="M 122.074219 161.3125 L 178 161.3125 L 178 180.0625 L 122.074219 180.0625 Z M 122.074219 161.3125 " clip-rule="nonzero"/></clipPath><clipPath id="f557cbdd60"><path d="M 155 161.3125 L 187.324219 161.3125 L 187.324219 180 L 155 180 Z M 155 161.3125 " clip-rule="nonzero"/></clipPath></defs><g clip-path="url(#2cf81dcece)"><path fill="#242424" d="M 123.070312 179.953125 L 149.796875 162.664062 C 149.796875 162.664062 176.519531 179.953125 176.519531 179.953125 C 176.796875 180.128906 177.164062 180.050781 177.34375 179.773438 C 177.523438 179.5 177.445312 179.128906 177.167969 178.949219 C 177.167969 178.949219 150.121094 161.449219 150.121094 161.449219 C 149.921875 161.324219 149.667969 161.324219 149.472656 161.449219 C 149.472656 161.449219 122.421875 178.949219 122.421875 178.949219 C 122.144531 179.128906 122.066406 179.5 122.246094 179.773438 C 122.425781 180.050781 122.792969 180.128906 123.070312 179.953125 Z M 123.070312 179.953125 " fill-opacity="1" fill-rule="evenodd"/></g><g clip-path="url(#f557cbdd60)"><path fill="#242424" d="M 156.402344 166.199219 L 161.316406 163.015625 C 161.316406 163.015625 186.582031 179.59375 186.582031 179.59375 C 186.859375 179.773438 187.230469 179.695312 187.410156 179.421875 C 187.589844 179.144531 187.511719 178.773438 187.238281 178.59375 C 187.238281 178.59375 161.648438 161.804688 161.648438 161.804688 C 161.449219 161.675781 161.195312 161.675781 160.996094 161.804688 C 160.996094 161.804688 158.820312 163.210938 155.753906 165.195312 C 155.476562 165.375 155.398438 165.742188 155.578125 166.019531 C 155.753906 166.296875 156.125 166.375 156.402344 166.199219 Z M 156.402344 166.199219 " fill-opacity="1" fill-rule="evenodd"/></g><path fill="#242424" d="M 137.585938 170.023438 L 137.585938 165.515625 C 137.585938 165.1875 137.320312 164.921875 136.992188 164.921875 L 132.019531 164.921875 C 131.6875 164.921875 131.425781 165.1875 131.425781 165.515625 L 131.425781 173.453125 C 131.425781 173.78125 131.6875 174.046875 132.019531 174.046875 C 132.347656 174.046875 132.613281 173.78125 132.613281 173.453125 L 132.613281 166.109375 C 132.613281 166.109375 136.398438 166.109375 136.398438 166.109375 L 136.398438 170.023438 C 136.398438 170.351562 136.664062 170.617188 136.992188 170.617188 C 137.320312 170.617188 137.585938 170.351562 137.585938 170.023438 Z M 137.585938 170.023438 " fill-opacity="1" fill-rule="evenodd"/><g fill="#242424" fill-opacity="1"><g transform="translate(122.074194, 203.086053)"><g><path d="M 24.796875 -0.0625 C 24.796875 -0.0195312 24.75 0.015625 24.65625 0.046875 C 24.5625 0.078125 24.457031 0.09375 24.34375 0.09375 C 24.257812 0.09375 23.984375 0.078125 23.515625 0.046875 C 23.046875 0.015625 22.191406 0 20.953125 0 C 19.835938 0 19.050781 0.015625 18.59375 0.046875 C 18.132812 0.078125 17.832031 0.09375 17.6875 0.09375 C 17.582031 0.09375 17.5 0.078125 17.4375 0.046875 C 17.375 0.015625 17.34375 -0.0195312 17.34375 -0.0625 C 17.34375 -0.09375 17.492188 -0.160156 17.796875 -0.265625 C 18.160156 -0.359375 18.445312 -0.554688 18.65625 -0.859375 C 18.863281 -1.171875 19.015625 -1.535156 19.109375 -1.953125 C 19.210938 -2.367188 19.273438 -2.8125 19.296875 -3.28125 C 19.328125 -3.75 19.34375 -4.195312 19.34375 -4.625 L 19.34375 -16.53125 L 19.28125 -16.53125 L 12.109375 -0.921875 C 12.085938 -0.878906 12.050781 -0.796875 12 -0.671875 C 11.957031 -0.546875 11.894531 -0.414062 11.8125 -0.28125 C 11.738281 -0.15625 11.664062 -0.0390625 11.59375 0.0625 C 11.519531 0.175781 11.453125 0.234375 11.390625 0.234375 L 11.34375 0.234375 C 11.257812 0.234375 11.179688 0.179688 11.109375 0.078125 C 11.035156 -0.015625 10.960938 -0.125 10.890625 -0.25 C 10.828125 -0.375 10.769531 -0.5 10.71875 -0.625 C 10.675781 -0.757812 10.632812 -0.867188 10.59375 -0.953125 L 3.5 -16.53125 L 3.4375 -16.53125 L 3.4375 -5.65625 C 3.4375 -5.15625 3.460938 -4.628906 3.515625 -4.078125 C 3.566406 -3.535156 3.65625 -3.023438 3.78125 -2.546875 C 3.914062 -2.078125 4.109375 -1.65625 4.359375 -1.28125 C 4.609375 -0.90625 4.9375 -0.628906 5.34375 -0.453125 C 5.738281 -0.210938 5.9375 -0.0703125 5.9375 -0.03125 C 5.9375 -0.0078125 5.8125 0 5.5625 0 L 0.609375 0 C 0.335938 0 0.203125 -0.03125 0.203125 -0.09375 C 0.203125 -0.125 0.242188 -0.160156 0.328125 -0.203125 C 0.410156 -0.242188 0.503906 -0.289062 0.609375 -0.34375 C 1.003906 -0.550781 1.335938 -0.859375 1.609375 -1.265625 C 1.878906 -1.679688 2.09375 -2.140625 2.25 -2.640625 C 2.414062 -3.140625 2.535156 -3.648438 2.609375 -4.171875 C 2.691406 -4.703125 2.734375 -5.195312 2.734375 -5.65625 L 2.734375 -15.125 C 2.734375 -15.394531 2.710938 -15.691406 2.671875 -16.015625 C 2.628906 -16.335938 2.5625 -16.640625 2.46875 -16.921875 C 2.375 -17.210938 2.234375 -17.46875 2.046875 -17.6875 C 1.867188 -17.914062 1.644531 -18.054688 1.375 -18.109375 C 1.300781 -18.128906 1.25 -18.164062 1.21875 -18.21875 C 1.1875 -18.28125 1.171875 -18.332031 1.171875 -18.375 C 1.171875 -18.445312 1.238281 -18.484375 1.375 -18.484375 C 1.695312 -18.484375 2.160156 -18.460938 2.765625 -18.421875 C 3.367188 -18.390625 3.945312 -18.375 4.5 -18.375 L 6.140625 -18.375 L 12.921875 -4.3125 L 19.203125 -18.375 L 23.765625 -18.375 C 23.941406 -18.375 24.050781 -18.351562 24.09375 -18.3125 C 24.144531 -18.269531 24.171875 -18.234375 24.171875 -18.203125 C 24.171875 -18.117188 24.035156 -18.039062 23.765625 -17.96875 C 23.285156 -17.875 22.960938 -17.59375 22.796875 -17.125 C 22.640625 -16.65625 22.5625 -16.082031 22.5625 -15.40625 L 22.5625 -4.625 C 22.5625 -4.195312 22.570312 -3.75 22.59375 -3.28125 C 22.625 -2.8125 22.695312 -2.367188 22.8125 -1.953125 C 22.925781 -1.535156 23.101562 -1.175781 23.34375 -0.875 C 23.582031 -0.582031 23.914062 -0.382812 24.34375 -0.28125 C 24.457031 -0.25 24.5625 -0.210938 24.65625 -0.171875 C 24.75 -0.128906 24.796875 -0.09375 24.796875 -0.0625 Z M 24.796875 -0.0625 "/></g></g></g><g fill="#242424" fill-opacity="1"><g transform="translate(147.04303, 203.086053)"><g><path d="M 20.671875 -18.3125 C 20.671875 -18.269531 20.59375 -18.207031 20.4375 -18.125 C 20.28125 -18.039062 20.097656 -17.921875 19.890625 -17.765625 C 19.722656 -17.628906 19.5 -17.429688 19.21875 -17.171875 C 18.9375 -16.921875 18.648438 -16.644531 18.359375 -16.34375 C 18.078125 -16.050781 17.8125 -15.757812 17.5625 -15.46875 C 17.3125 -15.1875 17.125 -14.957031 17 -14.78125 L 12.109375 -8.203125 L 12.109375 -3.46875 C 12.109375 -2.914062 12.125 -2.453125 12.15625 -2.078125 C 12.1875 -1.703125 12.242188 -1.394531 12.328125 -1.15625 C 12.410156 -0.914062 12.53125 -0.722656 12.6875 -0.578125 C 12.84375 -0.441406 13.050781 -0.316406 13.3125 -0.203125 C 13.414062 -0.160156 13.503906 -0.128906 13.578125 -0.109375 C 13.648438 -0.0976562 13.6875 -0.0703125 13.6875 -0.03125 C 13.6875 0.0078125 13.648438 0.0390625 13.578125 0.0625 C 13.503906 0.0820312 13.425781 0.09375 13.34375 0.09375 C 13.226562 0.09375 12.953125 0.078125 12.515625 0.046875 C 12.078125 0.015625 11.390625 0 10.453125 0 C 9.515625 0 8.820312 0.015625 8.375 0.046875 C 7.9375 0.078125 7.660156 0.09375 7.546875 0.09375 C 7.472656 0.09375 7.394531 0.0820312 7.3125 0.0625 C 7.238281 0.0390625 7.203125 0.0078125 7.203125 -0.03125 C 7.203125 -0.0703125 7.238281 -0.0976562 7.3125 -0.109375 C 7.394531 -0.128906 7.484375 -0.160156 7.578125 -0.203125 C 7.847656 -0.316406 8.054688 -0.441406 8.203125 -0.578125 C 8.359375 -0.722656 8.476562 -0.914062 8.5625 -1.15625 C 8.65625 -1.394531 8.710938 -1.703125 8.734375 -2.078125 C 8.765625 -2.453125 8.78125 -2.914062 8.78125 -3.46875 L 8.78125 -7.75 L 2.953125 -15.390625 C 2.554688 -15.898438 2.1875 -16.34375 1.84375 -16.71875 C 1.5 -17.09375 1.144531 -17.414062 0.78125 -17.6875 C 0.550781 -17.875 0.367188 -18 0.234375 -18.0625 C 0.0976562 -18.132812 0.03125 -18.207031 0.03125 -18.28125 C 0.03125 -18.34375 0.0703125 -18.390625 0.15625 -18.421875 C 0.238281 -18.460938 0.332031 -18.484375 0.4375 -18.484375 C 0.46875 -18.484375 0.609375 -18.476562 0.859375 -18.46875 C 1.109375 -18.457031 1.410156 -18.441406 1.765625 -18.421875 C 2.117188 -18.410156 2.503906 -18.398438 2.921875 -18.390625 C 3.347656 -18.378906 3.757812 -18.375 4.15625 -18.375 C 4.882812 -18.375 5.46875 -18.390625 5.90625 -18.421875 C 6.351562 -18.460938 6.648438 -18.484375 6.796875 -18.484375 C 6.878906 -18.484375 6.957031 -18.472656 7.03125 -18.453125 C 7.101562 -18.429688 7.140625 -18.382812 7.140625 -18.3125 C 7.140625 -18.238281 6.988281 -18.148438 6.6875 -18.046875 C 6.507812 -17.972656 6.316406 -17.851562 6.109375 -17.6875 C 5.898438 -17.53125 5.796875 -17.316406 5.796875 -17.046875 C 5.796875 -16.660156 5.875 -16.347656 6.03125 -16.109375 C 6.195312 -15.878906 6.40625 -15.597656 6.65625 -15.265625 L 11.59375 -8.953125 L 15.5625 -14.265625 C 16 -14.859375 16.332031 -15.394531 16.5625 -15.875 C 16.789062 -16.351562 16.90625 -16.6875 16.90625 -16.875 C 16.90625 -17.300781 16.820312 -17.582031 16.65625 -17.71875 C 16.5 -17.863281 16.34375 -17.972656 16.1875 -18.046875 C 16.050781 -18.109375 15.925781 -18.164062 15.8125 -18.21875 C 15.695312 -18.28125 15.640625 -18.332031 15.640625 -18.375 C 15.640625 -18.445312 15.773438 -18.484375 16.046875 -18.484375 C 16.179688 -18.484375 16.421875 -18.460938 16.765625 -18.421875 C 17.109375 -18.390625 17.554688 -18.375 18.109375 -18.375 C 18.609375 -18.375 19.0625 -18.390625 19.46875 -18.421875 C 19.882812 -18.460938 20.160156 -18.484375 20.296875 -18.484375 C 20.390625 -18.484375 20.472656 -18.472656 20.546875 -18.453125 C 20.628906 -18.429688 20.671875 -18.382812 20.671875 -18.3125 Z M 20.671875 -18.3125 "/></g></g></g><g fill="#242424" fill-opacity="1"><g transform="translate(167.764298, 203.086053)"><g/></g></g><g fill="#242424" fill-opacity="1"><g transform="translate(177.063036, 203.086053)"><g><path d="M 22.015625 0 C 22.015625 0.0625 21.863281 0.09375 21.5625 0.09375 C 21.3125 0.09375 21.082031 0.0859375 20.875 0.078125 C 20.675781 0.0664062 20.472656 0.0546875 20.265625 0.046875 C 20.054688 0.0351562 19.816406 0.0234375 19.546875 0.015625 C 19.273438 0.00390625 18.941406 0 18.546875 0 C 18.140625 0 17.800781 0.00390625 17.53125 0.015625 C 17.269531 0.0234375 17.03125 0.0351562 16.8125 0.046875 C 16.601562 0.0546875 16.40625 0.0664062 16.21875 0.078125 C 16.03125 0.0859375 15.800781 0.09375 15.53125 0.09375 C 15.21875 0.09375 15.0625 0.0625 15.0625 0 C 15.0625 -0.0703125 15.148438 -0.148438 15.328125 -0.234375 C 15.972656 -0.554688 16.390625 -0.9375 16.578125 -1.375 C 16.773438 -1.8125 16.875 -2.382812 16.875 -3.09375 L 16.875 -9.328125 L 5.9375 -9.328125 L 5.9375 -3.09375 C 5.9375 -2.382812 6.03125 -1.8125 6.21875 -1.375 C 6.414062 -0.9375 6.835938 -0.554688 7.484375 -0.234375 C 7.660156 -0.148438 7.75 -0.0703125 7.75 0 C 7.75 0.0625 7.597656 0.09375 7.296875 0.09375 C 7.046875 0.09375 6.816406 0.0859375 6.609375 0.078125 C 6.410156 0.0664062 6.207031 0.0546875 6 0.046875 C 5.789062 0.0351562 5.550781 0.0234375 5.28125 0.015625 C 5.007812 0.00390625 4.675781 0 4.28125 0 C 3.875 0 3.535156 0.00390625 3.265625 0.015625 C 3.003906 0.0234375 2.765625 0.0351562 2.546875 0.046875 C 2.335938 0.0546875 2.140625 0.0664062 1.953125 0.078125 C 1.765625 0.0859375 1.535156 0.09375 1.265625 0.09375 C 0.953125 0.09375 0.796875 0.0625 0.796875 0 C 0.796875 -0.0703125 0.882812 -0.148438 1.0625 -0.234375 C 1.707031 -0.554688 2.125 -0.9375 2.3125 -1.375 C 2.507812 -1.8125 2.609375 -2.382812 2.609375 -3.09375 L 2.609375 -15.84375 C 2.609375 -16.4375 2.515625 -16.945312 2.328125 -17.375 C 2.148438 -17.8125 1.832031 -18.085938 1.375 -18.203125 C 1.1875 -18.273438 1.09375 -18.332031 1.09375 -18.375 C 1.09375 -18.445312 1.234375 -18.484375 1.515625 -18.484375 C 1.628906 -18.484375 1.796875 -18.476562 2.015625 -18.46875 C 2.242188 -18.457031 2.484375 -18.441406 2.734375 -18.421875 C 2.992188 -18.410156 3.257812 -18.398438 3.53125 -18.390625 C 3.800781 -18.378906 4.050781 -18.375 4.28125 -18.375 C 4.507812 -18.375 4.757812 -18.378906 5.03125 -18.390625 C 5.3125 -18.398438 5.582031 -18.410156 5.84375 -18.421875 C 6.101562 -18.441406 6.335938 -18.457031 6.546875 -18.46875 C 6.753906 -18.476562 6.914062 -18.484375 7.03125 -18.484375 C 7.320312 -18.484375 7.46875 -18.445312 7.46875 -18.375 C 7.46875 -18.332031 7.367188 -18.273438 7.171875 -18.203125 C 6.710938 -18.085938 6.390625 -17.8125 6.203125 -17.375 C 6.023438 -16.945312 5.9375 -16.4375 5.9375 -15.84375 L 5.9375 -10.046875 L 16.875 -10.046875 L 16.875 -15.84375 C 16.875 -16.4375 16.78125 -16.945312 16.59375 -17.375 C 16.414062 -17.8125 16.097656 -18.085938 15.640625 -18.203125 C 15.453125 -18.273438 15.359375 -18.332031 15.359375 -18.375 C 15.359375 -18.445312 15.5 -18.484375 15.78125 -18.484375 C 15.894531 -18.484375 16.0625 -18.476562 16.28125 -18.46875 C 16.507812 -18.457031 16.75 -18.441406 17 -18.421875 C 17.257812 -18.410156 17.523438 -18.398438 17.796875 -18.390625 C 18.066406 -18.378906 18.316406 -18.375 18.546875 -18.375 C 18.773438 -18.375 19.023438 -18.378906 19.296875 -18.390625 C 19.578125 -18.398438 19.847656 -18.410156 20.109375 -18.421875 C 20.367188 -18.441406 20.601562 -18.457031 20.8125 -18.46875 C 21.019531 -18.476562 21.179688 -18.484375 21.296875 -18.484375 C 21.585938 -18.484375 21.734375 -18.445312 21.734375 -18.375 C 21.734375 -18.332031 21.632812 -18.273438 21.4375 -18.203125 C 20.976562 -18.085938 20.65625 -17.8125 20.46875 -17.375 C 20.289062 -16.945312 20.203125 -16.4375 20.203125 -15.84375 L 20.203125 -3.09375 C 20.203125 -2.382812 20.296875 -1.8125 20.484375 -1.375 C 20.679688 -0.9375 21.101562 -0.554688 21.75 -0.234375 C 21.925781 -0.148438 22.015625 -0.0703125 22.015625 0 Z M 22.015625 0 "/></g></g></g><g fill="#242424" fill-opacity="1"><g transform="translate(199.90808, 203.086053)"><g><path d="M 22.796875 -9.1875 C 22.796875 -7.707031 22.492188 -6.363281 21.890625 -5.15625 C 21.285156 -3.957031 20.476562 -2.929688 19.46875 -2.078125 C 18.46875 -1.222656 17.316406 -0.566406 16.015625 -0.109375 C 14.710938 0.347656 13.351562 0.578125 11.9375 0.578125 C 10.539062 0.578125 9.1875 0.347656 7.875 -0.109375 C 6.5625 -0.566406 5.40625 -1.222656 4.40625 -2.078125 C 3.40625 -2.929688 2.601562 -3.957031 2 -5.15625 C 1.394531 -6.363281 1.09375 -7.707031 1.09375 -9.1875 C 1.09375 -10.65625 1.394531 -11.992188 2 -13.203125 C 2.601562 -14.410156 3.40625 -15.4375 4.40625 -16.28125 C 5.40625 -17.132812 6.5625 -17.789062 7.875 -18.25 C 9.1875 -18.707031 10.539062 -18.9375 11.9375 -18.9375 C 13.351562 -18.9375 14.710938 -18.707031 16.015625 -18.25 C 17.316406 -17.789062 18.46875 -17.132812 19.46875 -16.28125 C 20.476562 -15.4375 21.285156 -14.410156 21.890625 -13.203125 C 22.492188 -11.992188 22.796875 -10.65625 22.796875 -9.1875 Z M 18.9375 -9.1875 C 18.9375 -10.257812 18.816406 -11.328125 18.578125 -12.390625 C 18.335938 -13.460938 17.945312 -14.429688 17.40625 -15.296875 C 16.863281 -16.160156 16.140625 -16.863281 15.234375 -17.40625 C 14.335938 -17.945312 13.238281 -18.21875 11.9375 -18.21875 C 10.632812 -18.21875 9.535156 -17.945312 8.640625 -17.40625 C 7.742188 -16.863281 7.019531 -16.160156 6.46875 -15.296875 C 5.925781 -14.429688 5.535156 -13.460938 5.296875 -12.390625 C 5.054688 -11.328125 4.9375 -10.257812 4.9375 -9.1875 C 4.9375 -8.113281 5.054688 -7.039062 5.296875 -5.96875 C 5.535156 -4.894531 5.925781 -3.925781 6.46875 -3.0625 C 7.019531 -2.207031 7.742188 -1.503906 8.640625 -0.953125 C 9.535156 -0.410156 10.632812 -0.140625 11.9375 -0.140625 C 13.238281 -0.140625 14.335938 -0.410156 15.234375 -0.953125 C 16.140625 -1.503906 16.863281 -2.207031 17.40625 -3.0625 C 17.945312 -3.925781 18.335938 -4.894531 18.578125 -5.96875 C 18.816406 -7.039062 18.9375 -8.113281 18.9375 -9.1875 Z M 18.9375 -9.1875 "/></g></g></g><g fill="#242424" fill-opacity="1"><g transform="translate(223.81502, 203.086053)"><g><path d="M 24.796875 -0.0625 C 24.796875 -0.0195312 24.75 0.015625 24.65625 0.046875 C 24.5625 0.078125 24.457031 0.09375 24.34375 0.09375 C 24.257812 0.09375 23.984375 0.078125 23.515625 0.046875 C 23.046875 0.015625 22.191406 0 20.953125 0 C 19.835938 0 19.050781 0.015625 18.59375 0.046875 C 18.132812 0.078125 17.832031 0.09375 17.6875 0.09375 C 17.582031 0.09375 17.5 0.078125 17.4375 0.046875 C 17.375 0.015625 17.34375 -0.0195312 17.34375 -0.0625 C 17.34375 -0.09375 17.492188 -0.160156 17.796875 -0.265625 C 18.160156 -0.359375 18.445312 -0.554688 18.65625 -0.859375 C 18.863281 -1.171875 19.015625 -1.535156 19.109375 -1.953125 C 19.210938 -2.367188 19.273438 -2.8125 19.296875 -3.28125 C 19.328125 -3.75 19.34375 -4.195312 19.34375 -4.625 L 19.34375 -16.53125 L 19.28125 -16.53125 L 12.109375 -0.921875 C 12.085938 -0.878906 12.050781 -0.796875 12 -0.671875 C 11.957031 -0.546875 11.894531 -0.414062 11.8125 -0.28125 C 11.738281 -0.15625 11.664062 -0.0390625 11.59375 0.0625 C 11.519531 0.175781 11.453125 0.234375 11.390625 0.234375 L 11.34375 0.234375 C 11.257812 0.234375 11.179688 0.179688 11.109375 0.078125 C 11.035156 -0.015625 10.960938 -0.125 10.890625 -0.25 C 10.828125 -0.375 10.769531 -0.5 10.71875 -0.625 C 10.675781 -0.757812 10.632812 -0.867188 10.59375 -0.953125 L 3.5 -16.53125 L 3.4375 -16.53125 L 3.4375 -5.65625 C 3.4375 -5.15625 3.460938 -4.628906 3.515625 -4.078125 C 3.566406 -3.535156 3.65625 -3.023438 3.78125 -2.546875 C 3.914062 -2.078125 4.109375 -1.65625 4.359375 -1.28125 C 4.609375 -0.90625 4.9375 -0.628906 5.34375 -0.453125 C 5.738281 -0.210938 5.9375 -0.0703125 5.9375 -0.03125 C 5.9375 -0.0078125 5.8125 0 5.5625 0 L 0.609375 0 C 0.335938 0 0.203125 -0.03125 0.203125 -0.09375 C 0.203125 -0.125 0.242188 -0.160156 0.328125 -0.203125 C 0.410156 -0.242188 0.503906 -0.289062 0.609375 -0.34375 C 1.003906 -0.550781 1.335938 -0.859375 1.609375 -1.265625 C 1.878906 -1.679688 2.09375 -2.140625 2.25 -2.640625 C 2.414062 -3.140625 2.535156 -3.648438 2.609375 -4.171875 C 2.691406 -4.703125 2.734375 -5.195312 2.734375 -5.65625 L 2.734375 -15.125 C 2.734375 -15.394531 2.710938 -15.691406 2.671875 -16.015625 C 2.628906 -16.335938 2.5625 -16.640625 2.46875 -16.921875 C 2.375 -17.210938 2.234375 -17.46875 2.046875 -17.6875 C 1.867188 -17.914062 1.644531 -18.054688 1.375 -18.109375 C 1.300781 -18.128906 1.25 -18.164062 1.21875 -18.21875 C 1.1875 -18.28125 1.171875 -18.332031 1.171875 -18.375 C 1.171875 -18.445312 1.238281 -18.484375 1.375 -18.484375 C 1.695312 -18.484375 2.160156 -18.460938 2.765625 -18.421875 C 3.367188 -18.390625 3.945312 -18.375 4.5 -18.375 L 6.140625 -18.375 L 12.921875 -4.3125 L 19.203125 -18.375 L 23.765625 -18.375 C 23.941406 -18.375 24.050781 -18.351562 24.09375 -18.3125 C 24.144531 -18.269531 24.171875 -18.234375 24.171875 -18.203125 C 24.171875 -18.117188 24.035156 -18.039062 23.765625 -17.96875 C 23.285156 -17.875 22.960938 -17.59375 22.796875 -17.125 C 22.640625 -16.65625 22.5625 -16.082031 22.5625 -15.40625 L 22.5625 -4.625 C 22.5625 -4.195312 22.570312 -3.75 22.59375 -3.28125 C 22.625 -2.8125 22.695312 -2.367188 22.8125 -1.953125 C 22.925781 -1.535156 23.101562 -1.175781 23.34375 -0.875 C 23.582031 -0.582031 23.914062 -0.382812 24.34375 -0.28125 C 24.457031 -0.25 24.5625 -0.210938 24.65625 -0.171875 C 24.75 -0.128906 24.796875 -0.09375 24.796875 -0.0625 Z M 24.796875 -0.0625 "/></g></g></g><g fill="#242424" fill-opacity="1"><g transform="translate(248.783855, 203.086053)"><g><path d="M 20.03125 -4.359375 C 20.03125 -4.328125 20.023438 -4.296875 20.015625 -4.265625 C 20.003906 -4.234375 19.992188 -4.191406 19.984375 -4.140625 L 18.71875 0 L 1.234375 0 C 0.910156 0 0.6875 -0.0078125 0.5625 -0.03125 C 0.4375 -0.0507812 0.375 -0.078125 0.375 -0.109375 C 0.375 -0.148438 0.484375 -0.207031 0.703125 -0.28125 C 0.921875 -0.363281 1.078125 -0.453125 1.171875 -0.546875 C 1.441406 -0.753906 1.65625 -0.96875 1.8125 -1.1875 C 1.976562 -1.40625 2.109375 -1.671875 2.203125 -1.984375 C 2.304688 -2.304688 2.367188 -2.691406 2.390625 -3.140625 C 2.421875 -3.585938 2.4375 -4.140625 2.4375 -4.796875 L 2.4375 -14.546875 C 2.4375 -15.484375 2.367188 -16.242188 2.234375 -16.828125 C 2.097656 -17.410156 1.742188 -17.78125 1.171875 -17.9375 C 1.078125 -17.976562 0.972656 -18.019531 0.859375 -18.0625 C 0.742188 -18.113281 0.6875 -18.160156 0.6875 -18.203125 C 0.6875 -18.253906 0.722656 -18.296875 0.796875 -18.328125 C 0.878906 -18.359375 1.023438 -18.375 1.234375 -18.375 L 17.453125 -18.375 L 18.21875 -15.671875 C 18.257812 -15.515625 18.3125 -15.34375 18.375 -15.15625 C 18.445312 -14.96875 18.484375 -14.785156 18.484375 -14.609375 C 18.484375 -14.453125 18.4375 -14.375 18.34375 -14.375 C 18.207031 -14.375 18.09375 -14.460938 18 -14.640625 C 17.6875 -15.140625 17.273438 -15.570312 16.765625 -15.9375 C 16.265625 -16.3125 15.703125 -16.628906 15.078125 -16.890625 C 14.460938 -17.148438 13.804688 -17.34375 13.109375 -17.46875 C 12.410156 -17.59375 11.722656 -17.65625 11.046875 -17.65625 L 5.765625 -17.65625 L 5.765625 -10.046875 L 11.078125 -10.046875 C 11.597656 -10.046875 12.097656 -10.101562 12.578125 -10.21875 C 13.054688 -10.332031 13.488281 -10.484375 13.875 -10.671875 C 14.269531 -10.867188 14.597656 -11.097656 14.859375 -11.359375 C 15.128906 -11.628906 15.3125 -11.910156 15.40625 -12.203125 C 15.46875 -12.367188 15.546875 -12.453125 15.640625 -12.453125 C 15.722656 -12.453125 15.765625 -12.3125 15.765625 -12.03125 L 15.765625 -7.296875 C 15.765625 -7.046875 15.753906 -6.878906 15.734375 -6.796875 C 15.710938 -6.722656 15.679688 -6.6875 15.640625 -6.6875 C 15.585938 -6.6875 15.546875 -6.726562 15.515625 -6.8125 C 15.484375 -6.90625 15.445312 -7 15.40625 -7.09375 C 15.195312 -7.625 14.90625 -8.035156 14.53125 -8.328125 C 14.164062 -8.628906 13.742188 -8.851562 13.265625 -9 C 12.785156 -9.144531 12.28125 -9.234375 11.75 -9.265625 C 11.226562 -9.304688 10.71875 -9.328125 10.21875 -9.328125 L 5.765625 -9.328125 L 5.765625 -3.265625 C 5.765625 -2.210938 5.960938 -1.523438 6.359375 -1.203125 C 6.765625 -0.878906 7.457031 -0.71875 8.4375 -0.71875 L 11.6875 -0.71875 C 12.289062 -0.71875 12.929688 -0.796875 13.609375 -0.953125 C 14.296875 -1.117188 14.972656 -1.335938 15.640625 -1.609375 C 16.304688 -1.890625 16.945312 -2.222656 17.5625 -2.609375 C 18.175781 -2.992188 18.710938 -3.40625 19.171875 -3.84375 C 19.347656 -4 19.507812 -4.140625 19.65625 -4.265625 C 19.8125 -4.390625 19.910156 -4.453125 19.953125 -4.453125 C 20.003906 -4.453125 20.03125 -4.421875 20.03125 -4.359375 Z M 20.03125 -4.359375 "/></g></g></g><g fill="#242424" fill-opacity="1"><g transform="translate(269.520218, 203.086053)"><g/></g></g><path stroke-linecap="butt" transform="matrix(0.739009, 0, 0, 0.739009, 123.67047, 170.598344)" fill="none" stroke-linejoin="miter" d="M 183.688504 4.618853 C 183.688504 4.687568 183.598646 4.745712 183.408357 4.793284 C 183.233926 4.851428 183.101781 5.025859 183.022494 5.311292 C 182.937921 5.60201 182.858635 6.009016 182.779348 6.537596 L 181.975907 12.46297 C 181.954764 12.589829 181.938907 12.706116 181.928335 12.811832 C 181.917763 12.917548 181.912478 13.039121 181.912478 13.16598 C 181.912478 13.340412 181.954764 13.477842 182.039337 13.572987 C 182.123909 13.673417 182.240197 13.768561 182.382913 13.868991 C 182.404056 13.884848 182.425199 13.905992 182.451628 13.921849 C 182.478057 13.937706 182.488629 13.953564 182.488629 13.969421 C 182.488629 14.016993 182.425199 14.043422 182.29834 14.043422 C 182.092195 14.043422 181.875477 14.038136 181.648188 14.022279 C 181.426185 14.006422 181.209467 14.001136 181.003321 14.001136 C 180.823604 14.001136 180.638601 14.006422 180.453599 14.022279 C 180.26331 14.038136 180.073021 14.043422 179.877447 14.043422 C 179.771731 14.043422 179.718873 14.016993 179.718873 13.969421 C 179.718873 13.921849 179.734731 13.890134 179.777017 13.874277 C 179.814018 13.858419 179.86159 13.83199 179.919733 13.79499 C 180.09945 13.689274 180.242167 13.546558 180.347883 13.377412 C 180.453599 13.202981 180.532885 12.991549 180.585743 12.737831 L 181.151323 9.159349 L 174.850658 9.159349 L 174.396079 12.46297 C 174.374936 12.589829 174.364365 12.706116 174.359079 12.811832 C 174.353793 12.917548 174.353793 13.039121 174.353793 13.16598 C 174.353793 13.340412 174.396079 13.477842 174.485938 13.572987 C 174.570511 13.673417 174.692084 13.768561 174.8348 13.868991 C 174.855943 13.884848 174.877087 13.905992 174.89823 13.921849 C 174.924659 13.937706 174.940516 13.953564 174.940516 13.969421 C 174.940516 14.016993 174.877087 14.043422 174.744942 14.043422 C 174.538796 14.043422 174.322078 14.038136 174.089503 14.022279 C 173.851643 14.006422 173.634925 14.001136 173.428779 14.001136 C 173.243777 14.001136 173.048202 14.006422 172.847342 14.022279 C 172.646482 14.038136 172.450908 14.043422 172.255333 14.043422 C 172.149617 14.043422 172.091474 14.016993 172.091474 13.969421 C 172.091474 13.921849 172.117903 13.884848 172.17076 13.868991 C 172.228904 13.847848 172.287048 13.821419 172.345192 13.779132 C 172.519623 13.673417 172.667625 13.525414 172.789198 13.324554 C 172.910772 13.12898 172.990058 12.933406 173.016487 12.737831 L 174.03136 6.564025 C 174.06836 6.320878 174.100075 6.093589 174.121218 5.871586 C 174.147647 5.654868 174.163505 5.459294 174.163505 5.290148 C 174.163505 5.147432 174.13179 5.031145 174.073646 4.946572 C 174.015502 4.867285 173.93093 4.782712 173.819928 4.703425 C 173.772356 4.676996 173.751213 4.650567 173.751213 4.63471 C 173.751213 4.581852 173.793499 4.560709 173.883358 4.560709 C 174.047217 4.560709 174.211077 4.571281 174.374936 4.592424 C 174.53351 4.608281 174.692084 4.618853 174.850658 4.618853 C 175.025089 4.618853 175.19952 4.608281 175.368665 4.592424 C 175.537811 4.571281 175.712242 4.560709 175.891959 4.560709 C 175.918388 4.560709 175.960674 4.560709 176.018818 4.565995 C 176.082248 4.571281 176.108677 4.587138 176.108677 4.618853 C 176.108677 4.687568 176.018818 4.745712 175.828529 4.793284 C 175.654098 4.851428 175.527239 5.025859 175.442667 5.311292 C 175.358094 5.60201 175.278807 6.009016 175.19952 6.537596 L 174.892944 8.836916 L 181.214753 8.836916 L 181.605902 6.564025 C 181.658759 6.320878 181.690474 6.093589 181.711617 5.871586 C 181.727475 5.654868 181.738046 5.459294 181.738046 5.290148 C 181.738046 5.147432 181.711617 5.031145 181.648188 4.946572 C 181.590044 4.867285 181.510757 4.782712 181.405041 4.703425 C 181.352183 4.676996 181.325754 4.650567 181.325754 4.63471 C 181.325754 4.581852 181.373327 4.560709 181.457899 4.560709 C 181.627045 4.560709 181.790904 4.571281 181.949478 4.592424 C 182.113338 4.608281 182.271911 4.618853 182.430485 4.618853 C 182.604916 4.618853 182.779348 4.608281 182.948493 4.592424 C 183.122924 4.571281 183.29207 4.560709 183.466501 4.560709 C 183.498216 4.560709 183.545788 4.560709 183.598646 4.565995 C 183.662075 4.571281 183.688504 4.587138 183.688504 4.618853 Z M 192.922785 9.502926 C 192.922785 10.184793 192.785354 10.813802 192.515779 11.389954 C 192.251489 11.966105 191.892055 12.468256 191.432191 12.885833 C 190.982899 13.308697 190.45432 13.63113 189.851739 13.868991 C 189.249159 14.101566 188.614863 14.217853 187.948853 14.217853 C 187.483704 14.217853 187.02384 14.138566 186.563976 13.985278 C 186.114683 13.826705 185.707677 13.604701 185.358815 13.319268 C 185.004667 13.033836 184.719234 12.679687 184.502516 12.26211 C 184.280513 11.849818 184.169511 11.384668 184.169511 10.877232 C 184.169511 10.195365 184.306942 9.566355 184.571232 8.990204 C 184.840807 8.414052 185.205527 7.911902 185.654819 7.494324 C 186.114683 7.071461 186.643263 6.743742 187.240557 6.511167 C 187.843138 6.273306 188.477433 6.157019 189.138157 6.157019 C 189.608593 6.157019 190.073742 6.236305 190.523035 6.394879 C 190.982899 6.548167 191.384619 6.770171 191.733481 7.060889 C 192.08763 7.346322 192.373062 7.695184 192.595066 8.107476 C 192.811783 8.514482 192.922785 8.979632 192.922785 9.502926 Z M 191.601337 9.159349 C 191.601337 8.757629 191.553765 8.392909 191.463906 8.054618 C 191.374048 7.716328 191.226045 7.430895 191.025185 7.187748 C 190.824325 6.939316 190.565321 6.749027 190.253459 6.622168 C 189.941598 6.484738 189.571592 6.421308 189.138157 6.421308 C 188.466861 6.421308 187.895996 6.564025 187.430846 6.860029 C 186.965696 7.150748 186.590405 7.531325 186.299686 7.996475 C 186.014253 8.461624 185.808107 8.974346 185.675962 9.545212 C 185.554389 10.110792 185.49096 10.6658 185.49096 11.215523 C 185.49096 11.617243 185.533246 11.987249 185.62839 12.320254 C 185.723535 12.658544 185.866251 12.943977 186.067111 13.187124 C 186.267971 13.424984 186.526975 13.615273 186.838837 13.752704 C 187.150699 13.890134 187.520704 13.958849 187.948853 13.958849 C 188.625435 13.958849 189.196301 13.810847 189.656165 13.514843 C 190.121315 13.224124 190.501892 12.843547 190.787324 12.383683 C 191.078043 11.918533 191.284189 11.400526 191.411048 10.834946 C 191.537907 10.269366 191.601337 9.709072 191.601337 9.159349 Z M 201.78706 9.677357 C 201.702488 10.16365 201.623201 10.686943 201.559771 11.241952 C 201.496342 11.802246 201.464627 12.330825 201.464627 12.838261 C 201.464627 13.06555 201.491056 13.261125 201.533342 13.414413 C 201.575629 13.572987 201.665487 13.705131 201.802918 13.810847 C 201.834632 13.83199 201.861061 13.847848 201.88749 13.858419 C 201.919205 13.874277 201.935063 13.89542 201.935063 13.927135 C 201.935063 13.974707 201.903348 14.001136 201.834632 14.001136 L 200.486755 14.001136 C 200.45504 13.805561 200.433897 13.551843 200.41804 13.239982 C 200.402182 12.922834 200.396897 12.600401 200.396897 12.256824 C 200.396897 12.108822 200.396897 11.96082 200.396897 11.818103 C 200.396897 11.670101 200.402182 11.527385 200.412754 11.389954 L 200.381039 11.389954 C 200.196037 11.802246 199.989891 12.182823 199.757316 12.526399 C 199.524741 12.875262 199.265737 13.171266 198.964447 13.424984 C 198.668442 13.673417 198.330152 13.868991 197.949574 14.006422 C 197.568997 14.149138 197.124991 14.217853 196.628126 14.217853 C 195.893401 14.217853 195.306678 14.016993 194.862671 13.620559 C 194.418664 13.218838 194.196661 12.621544 194.196661 11.828675 C 194.196661 11.606671 194.212519 11.374097 194.244233 11.136236 C 194.281234 10.893089 194.32352 10.649943 194.371092 10.406796 L 194.825671 8.059904 C 194.846814 7.954188 194.867957 7.859044 194.883814 7.769186 C 194.904957 7.679327 194.915529 7.605326 194.915529 7.552468 C 194.915529 7.277607 194.772813 7.071461 194.48738 6.93403 C 194.408093 6.902315 194.371092 6.865315 194.371092 6.817743 C 194.371092 6.786028 194.392236 6.764885 194.434522 6.743742 C 194.482094 6.722598 194.52438 6.706741 194.561381 6.696169 L 196.289835 6.379022 L 195.396536 11.189094 C 195.370107 11.321239 195.348964 11.458669 195.338393 11.590814 C 195.327821 11.722959 195.327821 11.855104 195.327821 11.992534 C 195.327821 12.521114 195.491681 12.959835 195.824686 13.313983 C 196.152405 13.662845 196.601697 13.837276 197.156705 13.837276 C 197.568997 13.837276 197.933717 13.747418 198.25615 13.567701 C 198.578584 13.387984 198.864017 13.150123 199.117735 12.859404 C 199.376739 12.5634 199.593456 12.230395 199.783745 11.855104 C 199.968747 11.474527 200.127321 11.088664 200.264752 10.692229 C 200.402182 10.295795 200.513184 9.909932 200.608328 9.53464 C 200.703473 9.159349 200.777474 8.826344 200.835618 8.53034 L 201.232052 6.579882 L 202.389641 6.379022 Z M 210.175614 7.90133 C 210.133328 8.007046 210.096327 8.059904 210.069898 8.059904 C 210.059327 8.059904 210.043469 8.038761 210.011755 7.991189 C 209.758037 7.441466 209.451461 7.045032 209.092027 6.7966 C 208.737879 6.542881 208.256871 6.421308 207.649005 6.421308 C 207.395287 6.421308 207.120426 6.453023 206.81385 6.516453 C 206.51256 6.579882 206.227127 6.680312 205.962837 6.817743 C 205.703833 6.955173 205.48183 7.129605 205.307399 7.351608 C 205.127682 7.573611 205.043109 7.837901 205.043109 8.149763 C 205.043109 8.472196 205.11711 8.725914 205.265112 8.905631 C 205.4184 9.085348 205.61926 9.228064 205.867693 9.328495 C 206.116125 9.43421 206.401558 9.508212 206.718705 9.550498 C 207.035853 9.592784 207.363572 9.635071 207.696577 9.677357 C 208.029582 9.714357 208.352016 9.76193 208.669163 9.814788 C 208.986311 9.867645 209.271744 9.957504 209.520176 10.079077 C 209.768608 10.20065 209.969468 10.375082 210.117471 10.591799 C 210.270759 10.813802 210.350045 11.104521 210.350045 11.474527 C 210.350045 12.013678 210.196757 12.46297 209.895467 12.817118 C 209.588891 13.16598 209.2136 13.446128 208.764307 13.657559 C 208.315015 13.868991 207.839294 14.011707 207.337143 14.090994 C 206.829707 14.175567 206.375129 14.217853 205.962837 14.217853 C 205.407829 14.217853 204.847535 14.15971 204.276669 14.048708 C 203.711089 13.937706 203.187796 13.742132 202.696217 13.456699 L 203.235368 12.209252 C 203.256511 12.182823 203.277654 12.151108 203.298797 12.124679 C 203.314655 12.092964 203.335798 12.077107 203.356941 12.077107 C 203.372798 12.077107 203.399227 12.108822 203.425656 12.172251 C 203.457371 12.240967 203.478514 12.320254 203.489086 12.415398 C 203.515515 12.679687 203.621231 12.906977 203.800948 13.097265 C 203.98595 13.287554 204.207954 13.446128 204.466958 13.572987 C 204.731247 13.699846 205.021966 13.79499 205.333828 13.858419 C 205.645689 13.927135 205.952265 13.958849 206.242984 13.958849 C 206.538989 13.958849 206.861422 13.921849 207.210284 13.853134 C 207.564432 13.784418 207.892152 13.673417 208.193442 13.514843 C 208.494732 13.361555 208.753736 13.150123 208.954596 12.896405 C 209.160742 12.632115 209.266458 12.320254 209.266458 11.950248 C 209.266458 11.685958 209.187171 11.474527 209.033883 11.326524 C 208.885881 11.173236 208.685021 11.051663 208.436588 10.96709 C 208.188156 10.877232 207.902723 10.808517 207.585576 10.76623 C 207.268428 10.723944 206.940709 10.681658 206.607704 10.644657 C 206.274699 10.597085 205.952265 10.538941 205.635118 10.475512 C 205.31797 10.412082 205.032537 10.306366 204.784105 10.168936 C 204.535673 10.026219 204.334813 9.841216 204.181525 9.613927 C 204.033522 9.381352 203.954236 9.085348 203.954236 8.720628 C 203.954236 8.213192 204.08638 7.790329 204.35067 7.46261 C 204.61496 7.129605 204.947965 6.870601 205.339113 6.675026 C 205.735548 6.484738 206.163697 6.352593 206.623561 6.278592 C 207.083425 6.199305 207.51686 6.157019 207.913295 6.157019 C 208.38373 6.157019 208.875309 6.204591 209.382745 6.299735 C 209.890181 6.389593 210.313045 6.516453 210.656621 6.685598 Z M 219.055747 7.446752 C 219.055747 7.874901 218.891887 8.22905 218.564168 8.509197 C 218.236449 8.789344 217.8453 9.006061 217.390722 9.164635 C 216.936144 9.317923 216.470994 9.428925 215.989987 9.487068 C 215.514266 9.545212 215.117831 9.571641 214.805969 9.571641 C 214.520536 9.571641 214.235104 9.561069 213.954957 9.545212 C 213.669524 9.524069 213.389377 9.476497 213.119801 9.39721 C 213.0088 9.730215 212.940084 10.042077 212.903084 10.343367 C 212.871369 10.639371 212.855512 10.850803 212.855512 10.977662 C 212.855512 11.379382 212.913655 11.759959 213.029943 12.124679 C 213.14623 12.484113 213.31009 12.801261 213.526807 13.070836 C 213.743525 13.340412 214.002529 13.557129 214.309105 13.715703 C 214.620966 13.879563 214.969829 13.958849 215.360978 13.958849 C 215.70984 13.958849 216.037559 13.911277 216.328278 13.826705 C 216.624282 13.736846 216.893858 13.620559 217.147576 13.472556 C 217.401294 13.324554 217.639154 13.155409 217.861158 12.959835 C 218.077875 12.76426 218.294593 12.558114 218.495453 12.341397 L 218.717456 12.595115 C 218.215306 13.113123 217.702584 13.509557 217.168719 13.79499 C 216.64014 14.075137 216.005844 14.217853 215.271119 14.217853 C 214.747826 14.217853 214.256247 14.138566 213.796383 13.969421 C 213.34709 13.805561 212.950656 13.578272 212.612365 13.29284 C 212.274074 13.002121 212.009785 12.66383 211.819496 12.277967 C 211.629207 11.892104 211.534063 11.479812 211.534063 11.041092 C 211.534063 10.375082 211.682065 9.746072 211.972784 9.154063 C 212.268788 8.562055 212.649366 8.044047 213.130373 7.60004 C 213.61138 7.156033 214.155817 6.807171 214.774254 6.548167 C 215.387406 6.289163 216.021702 6.157019 216.666568 6.157019 C 216.872714 6.157019 217.110575 6.172876 217.380151 6.199305 C 217.655012 6.23102 217.919301 6.289163 218.162448 6.384308 C 218.416166 6.474166 218.627598 6.611597 218.796743 6.780742 C 218.971174 6.949888 219.055747 7.171891 219.055747 7.446752 Z M 217.734299 7.388608 C 217.734299 7.203606 217.697298 7.045032 217.623297 6.918173 C 217.549296 6.791314 217.454152 6.690884 217.337864 6.622168 C 217.221577 6.548167 217.084146 6.495309 216.936144 6.463595 C 216.782856 6.437166 216.624282 6.421308 216.460423 6.421308 C 216.069274 6.421308 215.699268 6.490024 215.350406 6.63274 C 215.006829 6.775456 214.694968 6.965745 214.420106 7.214177 C 214.150531 7.457324 213.917956 7.742757 213.717096 8.070476 C 213.521521 8.398195 213.378805 8.741771 213.278375 9.101205 C 213.484521 9.164635 213.701238 9.212207 213.923242 9.249208 C 214.150531 9.286208 214.372534 9.307351 214.594538 9.307351 C 214.911685 9.307351 215.24469 9.286208 215.60941 9.238636 C 215.97413 9.185778 216.31242 9.090634 216.629568 8.947917 C 216.946716 8.810487 217.211005 8.614912 217.422437 8.36648 C 217.628583 8.118048 217.734299 7.790329 217.734299 7.388608 Z M 233.084242 7.362179 C 233.084242 7.642326 233.057813 8.007046 233.004956 8.451053 C 232.957383 8.895059 232.867525 9.370781 232.73538 9.878217 C 232.603235 10.390939 232.423518 10.903661 232.196229 11.421669 C 231.963654 11.939676 231.672936 12.404826 231.318787 12.817118 C 230.969925 13.234696 230.547062 13.572987 230.044911 13.83199 C 229.548047 14.090994 228.961324 14.217853 228.290028 14.217853 C 227.846021 14.217853 227.486587 14.149138 227.201155 14.006422 C 226.921007 13.868991 226.693718 13.673417 226.519287 13.424984 C 226.350142 13.171266 226.223283 12.880548 226.13871 12.542257 C 226.059423 12.203966 225.985422 11.839246 225.927278 11.448098 L 225.900849 11.448098 C 225.710561 11.839246 225.509701 12.203966 225.298269 12.542257 C 225.081551 12.880548 224.833119 13.171266 224.558258 13.424984 C 224.278111 13.673417 223.960963 13.868991 223.601529 14.006422 C 223.247381 14.149138 222.835089 14.217853 222.364654 14.217853 C 222.04222 14.217853 221.74093 14.15971 221.455497 14.043422 C 221.17535 13.927135 220.921632 13.757989 220.7102 13.546558 C 220.493483 13.32984 220.324337 13.076122 220.192193 12.774832 C 220.065334 12.478827 220.001904 12.145822 220.001904 11.786388 C 220.001904 11.474527 220.04419 11.099235 220.128763 10.671086 C 220.213336 10.242937 220.303194 9.814788 220.403624 9.39721 C 220.498769 8.979632 220.588627 8.593769 220.6732 8.250193 C 220.757772 7.90133 220.800059 7.66347 220.800059 7.536611 C 220.800059 7.341036 220.757772 7.19832 220.6732 7.103176 C 220.588627 7.008031 220.488197 6.928744 220.37191 6.860029 C 220.356052 6.849457 220.334909 6.838886 220.313766 6.823029 C 220.292623 6.807171 220.282051 6.791314 220.282051 6.775456 C 220.282051 6.743742 220.30848 6.722598 220.356052 6.706741 C 220.403624 6.690884 220.451196 6.680312 220.488197 6.669741 L 222.264224 6.379022 L 221.444926 9.6615 C 221.402639 9.809502 221.365639 9.968076 221.333924 10.147792 C 221.296923 10.316938 221.265209 10.501941 221.233494 10.692229 C 221.207065 10.882518 221.180636 11.067521 221.164779 11.241952 C 221.143635 11.421669 221.133064 11.580242 221.133064 11.728245 C 221.133064 11.992534 221.164779 12.251538 221.222922 12.499971 C 221.281066 12.748403 221.37621 12.970406 221.513641 13.16598 C 221.651072 13.361555 221.836074 13.514843 222.058078 13.636416 C 222.280081 13.752704 222.554942 13.810847 222.877376 13.810847 C 223.368954 13.810847 223.797104 13.668131 224.167109 13.39327 C 224.537115 13.113123 224.859548 12.769546 225.129124 12.357254 C 225.398699 11.944962 225.620702 11.506241 225.795133 11.03052 C 225.969565 10.560084 226.10171 10.126649 226.191568 9.735501 L 226.942151 6.537596 L 228.041596 6.379022 L 227.158868 10.422654 C 227.121868 10.581228 227.095439 10.739801 227.079581 10.898375 C 227.063724 11.062235 227.058438 11.252523 227.058438 11.474527 C 227.058438 11.802246 227.084867 12.108822 227.137725 12.394255 C 227.190583 12.684973 227.285727 12.933406 227.423158 13.150123 C 227.560588 13.366841 227.745591 13.535986 227.983452 13.657559 C 228.226598 13.779132 228.53846 13.837276 228.919037 13.837276 C 229.474046 13.837276 229.965624 13.668131 230.383202 13.335126 C 230.806066 12.996835 231.154928 12.579257 231.429789 12.082393 C 231.709936 11.585528 231.921368 11.046377 232.053513 10.475512 C 232.190943 9.89936 232.264944 9.381352 232.264944 8.916203 C 232.264944 8.720628 232.249087 8.509197 232.222658 8.281907 C 232.201515 8.059904 232.153943 7.843187 232.090513 7.642326 C 232.027084 7.441466 231.942511 7.261749 231.836795 7.103176 C 231.731079 6.939316 231.593649 6.8336 231.424503 6.775456 C 231.355788 6.73317 231.324073 6.706741 231.324073 6.696169 C 231.324073 6.669741 231.345216 6.653883 231.382217 6.653883 L 232.994384 6.379022 C 233.015527 6.484738 233.03667 6.63274 233.052528 6.823029 C 233.073671 7.013317 233.084242 7.193034 233.084242 7.362179 Z M 241.758229 9.76193 C 241.63137 10.290509 241.53094 10.808517 241.467511 11.315953 C 241.404081 11.823389 241.377652 12.330825 241.377652 12.838261 C 241.377652 13.06555 241.398795 13.261125 241.446367 13.414413 C 241.499225 13.572987 241.589084 13.705131 241.7318 13.810847 C 241.758229 13.83199 241.784658 13.847848 241.816373 13.858419 C 241.842802 13.874277 241.858659 13.89542 241.858659 13.927135 C 241.858659 13.974707 241.826945 14.001136 241.758229 14.001136 L 240.410352 14.001136 C 240.389209 13.964135 240.373351 13.858419 240.357494 13.683988 C 240.341637 13.514843 240.331065 13.313983 240.325779 13.091979 C 240.320493 12.86469 240.320493 12.632115 240.320493 12.388969 C 240.320493 12.145822 240.320493 11.934391 240.320493 11.754674 L 240.288779 11.754674 C 240.114348 12.108822 239.924059 12.436541 239.723199 12.732545 C 239.522339 13.033836 239.29505 13.287554 239.036046 13.509557 C 238.777042 13.73156 238.486323 13.900706 238.158604 14.027565 C 237.830885 14.154424 237.455594 14.217853 237.038016 14.217853 C 236.56758 14.217853 236.150003 14.138566 235.779997 13.985278 C 235.415277 13.826705 235.103415 13.609987 234.849697 13.335126 C 234.595979 13.054979 234.400405 12.72726 234.262974 12.351968 C 234.125544 11.976677 234.062114 11.564385 234.062114 11.109807 C 234.062114 10.343367 234.220688 9.650928 234.537836 9.037776 C 234.854983 8.42991 235.277847 7.911902 235.80114 7.483753 C 236.319148 7.060889 236.921728 6.73317 237.59831 6.500595 C 238.280177 6.273306 238.977902 6.157019 239.691484 6.157019 C 240.130205 6.157019 240.600641 6.209876 241.102791 6.320878 C 241.604941 6.426594 242.059519 6.56931 242.46124 6.743742 Z M 241.256079 6.976317 C 241.034076 6.780742 240.743357 6.638026 240.389209 6.553453 C 240.040346 6.463595 239.717913 6.421308 239.427194 6.421308 C 238.724184 6.421308 238.116318 6.56931 237.608882 6.865315 C 237.101445 7.166605 236.678582 7.552468 236.345577 8.033475 C 236.012572 8.514482 235.769425 9.058919 235.610852 9.666785 C 235.457564 10.279937 235.378277 10.893089 235.378277 11.511527 C 235.378277 11.781103 235.409992 12.055964 235.468135 12.336111 C 235.526279 12.616258 235.621423 12.86469 235.758854 13.081408 C 235.896284 13.303411 236.081287 13.483128 236.303291 13.625844 C 236.53058 13.768561 236.805441 13.837276 237.138446 13.837276 C 237.783313 13.837276 238.327749 13.652273 238.771756 13.276982 C 239.221048 12.901691 239.585768 12.436541 239.881773 11.892104 C 240.172491 11.342382 240.405066 10.755659 240.579497 10.131935 C 240.748643 9.508212 240.886073 8.937346 240.981218 8.42991 Z M 248.677333 6.215162 C 248.677333 6.241591 248.666761 6.289163 248.645618 6.347307 L 248.09061 7.420323 C 248.069466 7.467895 248.037752 7.489038 248.000751 7.489038 C 247.979608 7.489038 247.947893 7.478467 247.905607 7.452038 C 247.858035 7.430895 247.810463 7.409752 247.747033 7.388608 C 247.694175 7.356894 247.62546 7.330465 247.546173 7.309321 C 247.466886 7.282893 247.371742 7.272321 247.266026 7.272321 C 247.022879 7.272321 246.79559 7.351608 246.584159 7.504896 C 246.378013 7.66347 246.187724 7.86433 246.018579 8.118048 C 245.854719 8.36648 245.712003 8.646627 245.585144 8.958489 C 245.46357 9.270351 245.373712 9.582213 245.320854 9.894074 L 245.188709 10.554799 C 245.114708 10.877232 245.051278 11.257809 244.993135 11.691244 C 244.934991 12.124679 244.908562 12.510542 244.908562 12.838261 C 244.908562 13.06555 244.940277 13.266411 244.998421 13.435556 C 245.067136 13.609987 245.172852 13.73156 245.320854 13.810847 C 245.405427 13.847848 245.447713 13.890134 245.447713 13.927135 C 245.447713 13.974707 245.415998 14.001136 245.347283 14.001136 L 243.835546 14.001136 C 243.819689 13.863705 243.798545 13.752704 243.777402 13.662845 C 243.756259 13.572987 243.740402 13.498985 243.724544 13.43027 C 243.713973 13.361555 243.703401 13.287554 243.698115 13.208267 C 243.69283 13.12898 243.69283 13.02855 243.69283 12.901691 C 243.69283 12.706116 243.719259 12.425969 243.777402 12.066535 C 243.835546 11.707102 243.89369 11.352953 243.957119 11.009377 L 244.453984 8.033475 C 244.480413 7.859044 244.49627 7.674041 244.49627 7.489038 C 244.49627 7.293464 244.464555 7.156033 244.401126 7.082032 C 244.337696 7.002745 244.247838 6.923459 244.13155 6.844172 C 244.073407 6.7966 244.041692 6.770171 244.041692 6.759599 C 244.041692 6.717313 244.062835 6.690884 244.105121 6.675026 C 244.152694 6.664455 244.200266 6.648597 244.247838 6.643312 L 245.743717 6.379022 L 245.389569 8.620198 L 245.421284 8.646627 C 245.812433 7.816758 246.288154 7.19832 246.853734 6.780742 C 247.4246 6.363164 247.984894 6.157019 248.545188 6.157019 C 248.629761 6.157019 248.677333 6.178162 248.677333 6.215162 Z M 256.241303 7.446752 C 256.241303 7.874901 256.072158 8.22905 255.744438 8.509197 C 255.416719 8.789344 255.02557 9.006061 254.570992 9.164635 C 254.116414 9.317923 253.651264 9.428925 253.170257 9.487068 C 252.694536 9.545212 252.298101 9.571641 251.986239 9.571641 C 251.700806 9.571641 251.420659 9.561069 251.135227 9.545212 C 250.849794 9.524069 250.574932 9.476497 250.300071 9.39721 C 250.194355 9.730215 250.120354 10.042077 250.088639 10.343367 C 250.051639 10.639371 250.035782 10.850803 250.035782 10.977662 C 250.035782 11.379382 250.093925 11.759959 250.210213 12.124679 C 250.3265 12.484113 250.495646 12.801261 250.707077 13.070836 C 250.923795 13.340412 251.188084 13.557129 251.494661 13.715703 C 251.801237 13.879563 252.155385 13.958849 252.541248 13.958849 C 252.895396 13.958849 253.217829 13.911277 253.513834 13.826705 C 253.804552 13.736846 254.079413 13.620559 254.333132 13.472556 C 254.58685 13.324554 254.82471 13.155409 255.041428 12.959835 C 255.263431 12.76426 255.474863 12.558114 255.681009 12.341397 L 255.897726 12.595115 C 255.400862 13.113123 254.882854 13.509557 254.354275 13.79499 C 253.82041 14.075137 253.186114 14.217853 252.456675 14.217853 C 251.928096 14.217853 251.436517 14.138566 250.981939 13.969421 C 250.52736 13.805561 250.130926 13.578272 249.792635 13.29284 C 249.454344 13.002121 249.19534 12.66383 248.999766 12.277967 C 248.809478 11.892104 248.714333 11.479812 248.714333 11.041092 C 248.714333 10.375082 248.862335 9.746072 249.15834 9.154063 C 249.449059 8.562055 249.834921 8.044047 250.310643 7.60004 C 250.79165 7.156033 251.341373 6.807171 251.954525 6.548167 C 252.572962 6.289163 253.201972 6.157019 253.846839 6.157019 C 254.052984 6.157019 254.290845 6.172876 254.565706 6.199305 C 254.840568 6.23102 255.099572 6.289163 255.348004 6.384308 C 255.596436 6.474166 255.807868 6.611597 255.982299 6.780742 C 256.151444 6.949888 256.241303 7.171891 256.241303 7.446752 Z M 254.919855 7.388608 C 254.919855 7.203606 254.882854 7.045032 254.808853 6.918173 C 254.734852 6.791314 254.639708 6.690884 254.52342 6.622168 C 254.401847 6.548167 254.269702 6.495309 254.116414 6.463595 C 253.968412 6.437166 253.809838 6.421308 253.645978 6.421308 C 253.25483 6.421308 252.884824 6.490024 252.535962 6.63274 C 252.187099 6.775456 251.880523 6.965745 251.605662 7.214177 C 251.330801 7.457324 251.098226 7.742757 250.902652 8.070476 C 250.707077 8.398195 250.559075 8.741771 250.463931 9.101205 C 250.670077 9.164635 250.881508 9.212207 251.108798 9.249208 C 251.330801 9.286208 251.552804 9.307351 251.780093 9.307351 C 252.091955 9.307351 252.430246 9.286208 252.794966 9.238636 C 253.1544 9.185778 253.49269 9.090634 253.815124 8.947917 C 254.132271 8.810487 254.391275 8.614912 254.602707 8.36648 C 254.814139 8.118048 254.919855 7.790329 254.919855 7.388608 Z M 263.651985 7.90133 C 263.614985 8.007046 263.577984 8.059904 263.551555 8.059904 C 263.540983 8.059904 263.51984 8.038761 263.493411 7.991189 C 263.239693 7.441466 262.933117 7.045032 262.573683 6.7966 C 262.219535 6.542881 261.738528 6.421308 261.130662 6.421308 C 260.876944 6.421308 260.602082 6.453023 260.295506 6.516453 C 259.994216 6.579882 259.708783 6.680312 259.444494 6.817743 C 259.18549 6.955173 258.963486 7.129605 258.789055 7.351608 C 258.609338 7.573611 258.51948 7.837901 258.51948 8.149763 C 258.51948 8.472196 258.598767 8.725914 258.746769 8.905631 C 258.900057 9.085348 259.100917 9.228064 259.349349 9.328495 C 259.597782 9.43421 259.883214 9.508212 260.200362 9.550498 C 260.51751 9.592784 260.845229 9.635071 261.178234 9.677357 C 261.511239 9.714357 261.833672 9.76193 262.15082 9.814788 C 262.467967 9.867645 262.7534 9.957504 263.001833 10.079077 C 263.250265 10.20065 263.451125 10.375082 263.599127 10.591799 C 263.752415 10.813802 263.831702 11.104521 263.831702 11.474527 C 263.831702 12.013678 263.678414 12.46297 263.377124 12.817118 C 263.070548 13.16598 262.695257 13.446128 262.245964 13.657559 C 261.796672 13.868991 261.32095 14.011707 260.8188 14.090994 C 260.311364 14.175567 259.856786 14.217853 259.444494 14.217853 C 258.889485 14.217853 258.329191 14.15971 257.758326 14.048708 C 257.192746 13.937706 256.669452 13.742132 256.177873 13.456699 L 256.717024 12.209252 C 256.738167 12.182823 256.759311 12.151108 256.780454 12.124679 C 256.796311 12.092964 256.817454 12.077107 256.838598 12.077107 C 256.854455 12.077107 256.880884 12.108822 256.907313 12.172251 C 256.939028 12.240967 256.960171 12.320254 256.970742 12.415398 C 256.997171 12.679687 257.102887 12.906977 257.282604 13.097265 C 257.462321 13.287554 257.684324 13.446128 257.948614 13.572987 C 258.212904 13.699846 258.503622 13.79499 258.815484 13.858419 C 259.127346 13.927135 259.428636 13.958849 259.724641 13.958849 C 260.020645 13.958849 260.337793 13.921849 260.691941 13.853134 C 261.046089 13.784418 261.373808 13.673417 261.675098 13.514843 C 261.976389 13.361555 262.230107 13.150123 262.436253 12.896405 C 262.642399 12.632115 262.742829 12.320254 262.742829 11.950248 C 262.742829 11.685958 262.668828 11.474527 262.51554 11.326524 C 262.367537 11.173236 262.166677 11.051663 261.912959 10.96709 C 261.664527 10.877232 261.38438 10.808517 261.067232 10.76623 C 260.750085 10.723944 260.422365 10.681658 260.08936 10.644657 C 259.756355 10.597085 259.433922 10.538941 259.116774 10.475512 C 258.799627 10.412082 258.514194 10.306366 258.265762 10.168936 C 258.017329 10.026219 257.816469 9.841216 257.663181 9.613927 C 257.515179 9.381352 257.435892 9.085348 257.435892 8.720628 C 257.435892 8.213192 257.568037 7.790329 257.832327 7.46261 C 258.096616 7.129605 258.424336 6.870601 258.82077 6.675026 C 259.217205 6.484738 259.645354 6.352593 260.105218 6.278592 C 260.565082 6.199305 260.993231 6.157019 261.394951 6.157019 C 261.865387 6.157019 262.356966 6.204591 262.864402 6.299735 C 263.371838 6.389593 263.794702 6.516453 264.138278 6.685598 Z M 263.651985 7.90133 " stroke="#ffffff" stroke-width="3.685008" stroke-opacity="1" stroke-miterlimit="4"/><g fill="#242424" fill-opacity="1"><g transform="translate(250.849339, 180.944473)"><g><path d="M 8.5625 -6.9375 C 8.5625 -6.882812 8.492188 -6.835938 8.359375 -6.796875 C 8.234375 -6.753906 8.140625 -6.625 8.078125 -6.40625 C 8.015625 -6.195312 7.953125 -5.898438 7.890625 -5.515625 L 7.296875 -1.140625 C 7.285156 -1.046875 7.273438 -0.957031 7.265625 -0.875 C 7.253906 -0.800781 7.25 -0.71875 7.25 -0.625 C 7.25 -0.488281 7.28125 -0.382812 7.34375 -0.3125 C 7.40625 -0.238281 7.488281 -0.164062 7.59375 -0.09375 C 7.613281 -0.0820312 7.628906 -0.0703125 7.640625 -0.0625 C 7.660156 -0.0507812 7.671875 -0.0351562 7.671875 -0.015625 C 7.671875 0.015625 7.625 0.03125 7.53125 0.03125 C 7.382812 0.03125 7.226562 0.0234375 7.0625 0.015625 C 6.894531 0.00390625 6.734375 0 6.578125 0 C 6.441406 0 6.304688 0.00390625 6.171875 0.015625 C 6.035156 0.0234375 5.894531 0.03125 5.75 0.03125 C 5.664062 0.03125 5.625 0.015625 5.625 -0.015625 C 5.625 -0.0546875 5.640625 -0.0820312 5.671875 -0.09375 C 5.703125 -0.101562 5.738281 -0.125 5.78125 -0.15625 C 5.914062 -0.226562 6.019531 -0.328125 6.09375 -0.453125 C 6.175781 -0.585938 6.234375 -0.75 6.265625 -0.9375 L 6.6875 -3.578125 L 2.03125 -3.578125 L 1.703125 -1.140625 C 1.679688 -1.046875 1.671875 -0.957031 1.671875 -0.875 C 1.671875 -0.800781 1.671875 -0.71875 1.671875 -0.625 C 1.671875 -0.488281 1.703125 -0.382812 1.765625 -0.3125 C 1.828125 -0.238281 1.914062 -0.164062 2.03125 -0.09375 C 2.039062 -0.0820312 2.050781 -0.0703125 2.0625 -0.0625 C 2.082031 -0.0507812 2.09375 -0.0351562 2.09375 -0.015625 C 2.09375 0.015625 2.046875 0.03125 1.953125 0.03125 C 1.804688 0.03125 1.644531 0.0234375 1.46875 0.015625 C 1.300781 0.00390625 1.140625 0 0.984375 0 C 0.847656 0 0.703125 0.00390625 0.546875 0.015625 C 0.398438 0.0234375 0.257812 0.03125 0.125 0.03125 C 0.0390625 0.03125 0 0.015625 0 -0.015625 C 0 -0.0546875 0.0195312 -0.0820312 0.0625 -0.09375 C 0.101562 -0.113281 0.144531 -0.132812 0.1875 -0.15625 C 0.3125 -0.238281 0.421875 -0.351562 0.515625 -0.5 C 0.609375 -0.644531 0.664062 -0.789062 0.6875 -0.9375 L 1.421875 -5.484375 C 1.453125 -5.671875 1.476562 -5.84375 1.5 -6 C 1.519531 -6.164062 1.53125 -6.3125 1.53125 -6.4375 C 1.53125 -6.539062 1.503906 -6.625 1.453125 -6.6875 C 1.410156 -6.75 1.351562 -6.804688 1.28125 -6.859375 C 1.238281 -6.878906 1.21875 -6.898438 1.21875 -6.921875 C 1.21875 -6.953125 1.253906 -6.96875 1.328125 -6.96875 C 1.441406 -6.96875 1.554688 -6.960938 1.671875 -6.953125 C 1.796875 -6.941406 1.914062 -6.9375 2.03125 -6.9375 C 2.164062 -6.9375 2.296875 -6.941406 2.421875 -6.953125 C 2.546875 -6.960938 2.671875 -6.96875 2.796875 -6.96875 C 2.828125 -6.96875 2.863281 -6.96875 2.90625 -6.96875 C 2.945312 -6.96875 2.96875 -6.957031 2.96875 -6.9375 C 2.96875 -6.882812 2.898438 -6.835938 2.765625 -6.796875 C 2.628906 -6.753906 2.53125 -6.625 2.46875 -6.40625 C 2.40625 -6.195312 2.347656 -5.898438 2.296875 -5.515625 L 2.0625 -3.8125 L 6.734375 -3.8125 L 7.03125 -5.484375 C 7.0625 -5.671875 7.082031 -5.84375 7.09375 -6 C 7.113281 -6.164062 7.125 -6.3125 7.125 -6.4375 C 7.125 -6.539062 7.101562 -6.625 7.0625 -6.6875 C 7.019531 -6.75 6.957031 -6.804688 6.875 -6.859375 C 6.84375 -6.878906 6.828125 -6.898438 6.828125 -6.921875 C 6.828125 -6.953125 6.859375 -6.96875 6.921875 -6.96875 C 7.046875 -6.96875 7.164062 -6.960938 7.28125 -6.953125 C 7.394531 -6.941406 7.515625 -6.9375 7.640625 -6.9375 C 7.765625 -6.9375 7.890625 -6.941406 8.015625 -6.953125 C 8.140625 -6.960938 8.269531 -6.96875 8.40625 -6.96875 C 8.425781 -6.96875 8.457031 -6.96875 8.5 -6.96875 C 8.539062 -6.96875 8.5625 -6.957031 8.5625 -6.9375 Z M 8.5625 -6.9375 "/></g></g></g><g fill="#242424" fill-opacity="1"><g transform="translate(259.470925, 180.944473)"><g><path d="M 6.765625 -3.328125 C 6.765625 -2.816406 6.664062 -2.347656 6.46875 -1.921875 C 6.269531 -1.492188 6.003906 -1.125 5.671875 -0.8125 C 5.335938 -0.507812 4.945312 -0.269531 4.5 -0.09375 C 4.050781 0.0703125 3.582031 0.15625 3.09375 0.15625 C 2.75 0.15625 2.40625 0.0976562 2.0625 -0.015625 C 1.726562 -0.128906 1.429688 -0.289062 1.171875 -0.5 C 0.921875 -0.71875 0.710938 -0.976562 0.546875 -1.28125 C 0.378906 -1.59375 0.296875 -1.9375 0.296875 -2.3125 C 0.296875 -2.8125 0.394531 -3.273438 0.59375 -3.703125 C 0.800781 -4.128906 1.070312 -4.492188 1.40625 -4.796875 C 1.738281 -5.109375 2.125 -5.351562 2.5625 -5.53125 C 3.007812 -5.707031 3.476562 -5.796875 3.96875 -5.796875 C 4.320312 -5.796875 4.664062 -5.738281 5 -5.625 C 5.332031 -5.507812 5.628906 -5.34375 5.890625 -5.125 C 6.148438 -4.914062 6.359375 -4.65625 6.515625 -4.34375 C 6.679688 -4.039062 6.765625 -3.703125 6.765625 -3.328125 Z M 5.796875 -3.578125 C 5.796875 -3.867188 5.757812 -4.140625 5.6875 -4.390625 C 5.625 -4.640625 5.515625 -4.851562 5.359375 -5.03125 C 5.210938 -5.21875 5.023438 -5.359375 4.796875 -5.453125 C 4.566406 -5.546875 4.289062 -5.59375 3.96875 -5.59375 C 3.476562 -5.59375 3.0625 -5.484375 2.71875 -5.265625 C 2.375 -5.054688 2.09375 -4.78125 1.875 -4.4375 C 1.664062 -4.09375 1.515625 -3.707031 1.421875 -3.28125 C 1.328125 -2.863281 1.28125 -2.457031 1.28125 -2.0625 C 1.28125 -1.757812 1.3125 -1.484375 1.375 -1.234375 C 1.445312 -0.984375 1.554688 -0.769531 1.703125 -0.59375 C 1.847656 -0.414062 2.035156 -0.273438 2.265625 -0.171875 C 2.503906 -0.078125 2.78125 -0.03125 3.09375 -0.03125 C 3.59375 -0.03125 4.015625 -0.140625 4.359375 -0.359375 C 4.703125 -0.578125 4.976562 -0.851562 5.1875 -1.1875 C 5.40625 -1.53125 5.5625 -1.910156 5.65625 -2.328125 C 5.75 -2.753906 5.796875 -3.171875 5.796875 -3.578125 Z M 5.796875 -3.578125 "/></g></g></g><g fill="#242424" fill-opacity="1"><g transform="translate(266.695299, 180.944473)"><g><path d="M 6.09375 -3.1875 C 6.03125 -2.832031 5.972656 -2.445312 5.921875 -2.03125 C 5.878906 -1.625 5.859375 -1.234375 5.859375 -0.859375 C 5.859375 -0.691406 5.875 -0.550781 5.90625 -0.4375 C 5.9375 -0.320312 6.003906 -0.222656 6.109375 -0.140625 C 6.128906 -0.128906 6.148438 -0.117188 6.171875 -0.109375 C 6.191406 -0.0976562 6.203125 -0.078125 6.203125 -0.046875 C 6.203125 -0.015625 6.175781 0 6.125 0 L 5.125 0 C 5.101562 -0.144531 5.085938 -0.332031 5.078125 -0.5625 C 5.066406 -0.789062 5.0625 -1.03125 5.0625 -1.28125 C 5.0625 -1.394531 5.0625 -1.503906 5.0625 -1.609375 C 5.0625 -1.722656 5.066406 -1.828125 5.078125 -1.921875 L 5.0625 -1.921875 C 4.914062 -1.617188 4.757812 -1.335938 4.59375 -1.078125 C 4.425781 -0.828125 4.234375 -0.609375 4.015625 -0.421875 C 3.796875 -0.242188 3.546875 -0.101562 3.265625 0 C 2.984375 0.101562 2.65625 0.15625 2.28125 0.15625 C 1.738281 0.15625 1.300781 0.0078125 0.96875 -0.28125 C 0.644531 -0.570312 0.484375 -1.015625 0.484375 -1.609375 C 0.484375 -1.773438 0.492188 -1.941406 0.515625 -2.109375 C 0.546875 -2.285156 0.582031 -2.46875 0.625 -2.65625 L 0.953125 -4.390625 C 0.960938 -4.460938 0.972656 -4.53125 0.984375 -4.59375 C 1.003906 -4.664062 1.015625 -4.722656 1.015625 -4.765625 C 1.015625 -4.960938 0.910156 -5.113281 0.703125 -5.21875 C 0.648438 -5.238281 0.625 -5.269531 0.625 -5.3125 C 0.625 -5.332031 0.640625 -5.347656 0.671875 -5.359375 C 0.703125 -5.367188 0.734375 -5.378906 0.765625 -5.390625 L 2.03125 -5.625 L 1.375 -2.078125 C 1.351562 -1.972656 1.335938 -1.875 1.328125 -1.78125 C 1.328125 -1.6875 1.328125 -1.585938 1.328125 -1.484375 C 1.328125 -1.097656 1.445312 -0.773438 1.6875 -0.515625 C 1.9375 -0.253906 2.265625 -0.125 2.671875 -0.125 C 2.972656 -0.125 3.242188 -0.1875 3.484375 -0.3125 C 3.722656 -0.445312 3.9375 -0.625 4.125 -0.84375 C 4.3125 -1.0625 4.472656 -1.304688 4.609375 -1.578125 C 4.742188 -1.859375 4.863281 -2.144531 4.96875 -2.4375 C 5.070312 -2.726562 5.15625 -3.015625 5.21875 -3.296875 C 5.289062 -3.578125 5.347656 -3.820312 5.390625 -4.03125 L 5.6875 -5.484375 L 6.546875 -5.625 Z M 6.09375 -3.1875 "/></g></g></g><g fill="#242424" fill-opacity="1"><g transform="translate(273.71388, 180.944473)"><g><path d="M 5.265625 -4.5 C 5.242188 -4.425781 5.222656 -4.390625 5.203125 -4.390625 C 5.191406 -4.390625 5.175781 -4.40625 5.15625 -4.4375 C 4.96875 -4.84375 4.738281 -5.132812 4.46875 -5.3125 C 4.207031 -5.5 3.851562 -5.59375 3.40625 -5.59375 C 3.21875 -5.59375 3.007812 -5.566406 2.78125 -5.515625 C 2.5625 -5.472656 2.351562 -5.398438 2.15625 -5.296875 C 1.96875 -5.203125 1.804688 -5.070312 1.671875 -4.90625 C 1.546875 -4.75 1.484375 -4.554688 1.484375 -4.328125 C 1.484375 -4.085938 1.535156 -3.898438 1.640625 -3.765625 C 1.753906 -3.628906 1.90625 -3.519531 2.09375 -3.4375 C 2.28125 -3.363281 2.488281 -3.3125 2.71875 -3.28125 C 2.957031 -3.25 3.195312 -3.21875 3.4375 -3.1875 C 3.6875 -3.164062 3.925781 -3.132812 4.15625 -3.09375 C 4.394531 -3.050781 4.601562 -2.984375 4.78125 -2.890625 C 4.96875 -2.804688 5.117188 -2.679688 5.234375 -2.515625 C 5.347656 -2.359375 5.40625 -2.140625 5.40625 -1.859375 C 5.40625 -1.460938 5.289062 -1.132812 5.0625 -0.875 C 4.84375 -0.613281 4.566406 -0.40625 4.234375 -0.25 C 3.898438 -0.09375 3.546875 0.0078125 3.171875 0.0625 C 2.804688 0.125 2.472656 0.15625 2.171875 0.15625 C 1.753906 0.15625 1.335938 0.113281 0.921875 0.03125 C 0.503906 -0.0507812 0.113281 -0.195312 -0.25 -0.40625 L 0.15625 -1.328125 C 0.164062 -1.347656 0.175781 -1.367188 0.1875 -1.390625 C 0.207031 -1.410156 0.222656 -1.421875 0.234375 -1.421875 C 0.253906 -1.421875 0.273438 -1.394531 0.296875 -1.34375 C 0.316406 -1.300781 0.328125 -1.242188 0.328125 -1.171875 C 0.359375 -0.972656 0.4375 -0.800781 0.5625 -0.65625 C 0.695312 -0.519531 0.863281 -0.40625 1.0625 -0.3125 C 1.257812 -0.21875 1.472656 -0.144531 1.703125 -0.09375 C 1.929688 -0.0507812 2.15625 -0.03125 2.375 -0.03125 C 2.59375 -0.03125 2.828125 -0.0546875 3.078125 -0.109375 C 3.335938 -0.160156 3.578125 -0.242188 3.796875 -0.359375 C 4.023438 -0.472656 4.21875 -0.625 4.375 -0.8125 C 4.53125 -1.007812 4.609375 -1.242188 4.609375 -1.515625 C 4.609375 -1.710938 4.550781 -1.863281 4.4375 -1.96875 C 4.320312 -2.082031 4.171875 -2.171875 3.984375 -2.234375 C 3.804688 -2.304688 3.597656 -2.359375 3.359375 -2.390625 C 3.128906 -2.421875 2.890625 -2.453125 2.640625 -2.484375 C 2.398438 -2.515625 2.160156 -2.550781 1.921875 -2.59375 C 1.679688 -2.644531 1.46875 -2.722656 1.28125 -2.828125 C 1.101562 -2.929688 0.957031 -3.066406 0.84375 -3.234375 C 0.738281 -3.410156 0.6875 -3.628906 0.6875 -3.890625 C 0.6875 -4.273438 0.78125 -4.585938 0.96875 -4.828125 C 1.164062 -5.078125 1.410156 -5.269531 1.703125 -5.40625 C 1.992188 -5.550781 2.304688 -5.648438 2.640625 -5.703125 C 2.984375 -5.765625 3.304688 -5.796875 3.609375 -5.796875 C 3.953125 -5.796875 4.3125 -5.757812 4.6875 -5.6875 C 5.0625 -5.625 5.375 -5.53125 5.625 -5.40625 Z M 5.265625 -4.5 "/></g></g></g><g fill="#242424" fill-opacity="1"><g transform="translate(279.736, 180.944473)"><g><path d="M 5.8125 -4.84375 C 5.8125 -4.519531 5.691406 -4.253906 5.453125 -4.046875 C 5.210938 -3.847656 4.921875 -3.691406 4.578125 -3.578125 C 4.242188 -3.460938 3.898438 -3.378906 3.546875 -3.328125 C 3.191406 -3.285156 2.898438 -3.265625 2.671875 -3.265625 C 2.460938 -3.265625 2.253906 -3.269531 2.046875 -3.28125 C 1.835938 -3.300781 1.628906 -3.34375 1.421875 -3.40625 C 1.347656 -3.15625 1.296875 -2.921875 1.265625 -2.703125 C 1.242188 -2.484375 1.234375 -2.328125 1.234375 -2.234375 C 1.234375 -1.929688 1.273438 -1.644531 1.359375 -1.375 C 1.453125 -1.113281 1.578125 -0.882812 1.734375 -0.6875 C 1.890625 -0.488281 2.082031 -0.328125 2.3125 -0.203125 C 2.539062 -0.0859375 2.800781 -0.03125 3.09375 -0.03125 C 3.34375 -0.03125 3.578125 -0.0625 3.796875 -0.125 C 4.015625 -0.195312 4.21875 -0.285156 4.40625 -0.390625 C 4.59375 -0.492188 4.765625 -0.617188 4.921875 -0.765625 C 5.085938 -0.910156 5.25 -1.0625 5.40625 -1.21875 L 5.5625 -1.046875 C 5.195312 -0.660156 4.816406 -0.363281 4.421875 -0.15625 C 4.023438 0.0507812 3.554688 0.15625 3.015625 0.15625 C 2.628906 0.15625 2.265625 0.0976562 1.921875 -0.015625 C 1.585938 -0.140625 1.296875 -0.304688 1.046875 -0.515625 C 0.804688 -0.734375 0.613281 -0.984375 0.46875 -1.265625 C 0.332031 -1.554688 0.265625 -1.863281 0.265625 -2.1875 C 0.265625 -2.675781 0.367188 -3.140625 0.578125 -3.578125 C 0.796875 -4.015625 1.082031 -4.394531 1.4375 -4.71875 C 1.789062 -5.050781 2.191406 -5.3125 2.640625 -5.5 C 3.097656 -5.695312 3.566406 -5.796875 4.046875 -5.796875 C 4.203125 -5.796875 4.378906 -5.785156 4.578125 -5.765625 C 4.785156 -5.742188 4.976562 -5.695312 5.15625 -5.625 C 5.34375 -5.550781 5.5 -5.453125 5.625 -5.328125 C 5.75 -5.203125 5.8125 -5.039062 5.8125 -4.84375 Z M 4.84375 -4.890625 C 4.84375 -5.023438 4.8125 -5.140625 4.75 -5.234375 C 4.695312 -5.328125 4.628906 -5.398438 4.546875 -5.453125 C 4.460938 -5.503906 4.363281 -5.539062 4.25 -5.5625 C 4.132812 -5.582031 4.015625 -5.59375 3.890625 -5.59375 C 3.609375 -5.59375 3.335938 -5.539062 3.078125 -5.4375 C 2.828125 -5.332031 2.597656 -5.191406 2.390625 -5.015625 C 2.191406 -4.835938 2.019531 -4.625 1.875 -4.375 C 1.726562 -4.132812 1.617188 -3.878906 1.546875 -3.609375 C 1.703125 -3.566406 1.863281 -3.53125 2.03125 -3.5 C 2.195312 -3.476562 2.359375 -3.46875 2.515625 -3.46875 C 2.753906 -3.46875 3.003906 -3.484375 3.265625 -3.515625 C 3.535156 -3.554688 3.785156 -3.628906 4.015625 -3.734375 C 4.253906 -3.835938 4.453125 -3.976562 4.609375 -4.15625 C 4.765625 -4.34375 4.84375 -4.585938 4.84375 -4.890625 Z M 4.84375 -4.890625 "/></g></g></g><g fill="#242424" fill-opacity="1"><g transform="translate(285.75812, 180.944473)"><g><path d="M 10.15625 -4.90625 C 10.15625 -4.695312 10.132812 -4.425781 10.09375 -4.09375 C 10.0625 -3.769531 9.992188 -3.421875 9.890625 -3.046875 C 9.796875 -2.671875 9.664062 -2.289062 9.5 -1.90625 C 9.332031 -1.519531 9.117188 -1.171875 8.859375 -0.859375 C 8.597656 -0.554688 8.28125 -0.3125 7.90625 -0.125 C 7.539062 0.0625 7.109375 0.15625 6.609375 0.15625 C 6.285156 0.15625 6.019531 0.101562 5.8125 0 C 5.601562 -0.101562 5.4375 -0.242188 5.3125 -0.421875 C 5.1875 -0.609375 5.09375 -0.828125 5.03125 -1.078125 C 4.96875 -1.328125 4.914062 -1.597656 4.875 -1.890625 L 4.84375 -1.890625 C 4.707031 -1.597656 4.5625 -1.328125 4.40625 -1.078125 C 4.25 -0.828125 4.066406 -0.609375 3.859375 -0.421875 C 3.648438 -0.242188 3.414062 -0.101562 3.15625 0 C 2.894531 0.101562 2.585938 0.15625 2.234375 0.15625 C 2.003906 0.15625 1.78125 0.113281 1.5625 0.03125 C 1.351562 -0.0507812 1.171875 -0.171875 1.015625 -0.328125 C 0.859375 -0.492188 0.734375 -0.6875 0.640625 -0.90625 C 0.546875 -1.125 0.5 -1.367188 0.5 -1.640625 C 0.5 -1.867188 0.53125 -2.140625 0.59375 -2.453125 C 0.65625 -2.773438 0.722656 -3.085938 0.796875 -3.390625 C 0.867188 -3.703125 0.929688 -3.988281 0.984375 -4.25 C 1.046875 -4.507812 1.078125 -4.6875 1.078125 -4.78125 C 1.078125 -4.914062 1.046875 -5.019531 0.984375 -5.09375 C 0.929688 -5.164062 0.859375 -5.222656 0.765625 -5.265625 C 0.753906 -5.273438 0.738281 -5.285156 0.71875 -5.296875 C 0.707031 -5.304688 0.703125 -5.320312 0.703125 -5.34375 C 0.703125 -5.363281 0.71875 -5.378906 0.75 -5.390625 C 0.789062 -5.398438 0.828125 -5.40625 0.859375 -5.40625 L 2.171875 -5.625 L 1.5625 -3.203125 C 1.53125 -3.097656 1.5 -2.976562 1.46875 -2.84375 C 1.445312 -2.71875 1.425781 -2.582031 1.40625 -2.4375 C 1.382812 -2.300781 1.363281 -2.164062 1.34375 -2.03125 C 1.332031 -1.90625 1.328125 -1.785156 1.328125 -1.671875 C 1.328125 -1.484375 1.347656 -1.296875 1.390625 -1.109375 C 1.441406 -0.921875 1.515625 -0.753906 1.609375 -0.609375 C 1.710938 -0.472656 1.847656 -0.359375 2.015625 -0.265625 C 2.179688 -0.179688 2.382812 -0.140625 2.625 -0.140625 C 2.976562 -0.140625 3.289062 -0.242188 3.5625 -0.453125 C 3.84375 -0.660156 4.082031 -0.914062 4.28125 -1.21875 C 4.476562 -1.519531 4.640625 -1.84375 4.765625 -2.1875 C 4.898438 -2.539062 5 -2.863281 5.0625 -3.15625 L 5.625 -5.515625 L 6.4375 -5.625 L 5.78125 -2.640625 C 5.75 -2.523438 5.726562 -2.40625 5.71875 -2.28125 C 5.707031 -2.164062 5.703125 -2.023438 5.703125 -1.859375 C 5.703125 -1.617188 5.722656 -1.390625 5.765625 -1.171875 C 5.804688 -0.960938 5.875 -0.78125 5.96875 -0.625 C 6.070312 -0.46875 6.210938 -0.34375 6.390625 -0.25 C 6.566406 -0.164062 6.796875 -0.125 7.078125 -0.125 C 7.492188 -0.125 7.851562 -0.242188 8.15625 -0.484375 C 8.46875 -0.734375 8.726562 -1.039062 8.9375 -1.40625 C 9.144531 -1.78125 9.296875 -2.175781 9.390625 -2.59375 C 9.492188 -3.019531 9.546875 -3.40625 9.546875 -3.75 C 9.546875 -3.894531 9.535156 -4.050781 9.515625 -4.21875 C 9.503906 -4.382812 9.472656 -4.539062 9.421875 -4.6875 C 9.378906 -4.84375 9.316406 -4.976562 9.234375 -5.09375 C 9.160156 -5.207031 9.0625 -5.289062 8.9375 -5.34375 C 8.882812 -5.363281 8.859375 -5.378906 8.859375 -5.390625 C 8.859375 -5.410156 8.875 -5.421875 8.90625 -5.421875 L 10.09375 -5.625 C 10.101562 -5.550781 10.113281 -5.441406 10.125 -5.296875 C 10.144531 -5.160156 10.15625 -5.03125 10.15625 -4.90625 Z M 10.15625 -4.90625 "/></g></g></g><g fill="#242424" fill-opacity="1"><g transform="translate(296.383475, 180.944473)"><g><path d="M 5.9375 -3.125 C 5.84375 -2.738281 5.769531 -2.359375 5.71875 -1.984375 C 5.675781 -1.609375 5.65625 -1.234375 5.65625 -0.859375 C 5.65625 -0.691406 5.671875 -0.550781 5.703125 -0.4375 C 5.742188 -0.320312 5.816406 -0.222656 5.921875 -0.140625 C 5.941406 -0.128906 5.960938 -0.117188 5.984375 -0.109375 C 6.003906 -0.0976562 6.015625 -0.078125 6.015625 -0.046875 C 6.015625 -0.015625 5.988281 0 5.9375 0 L 4.953125 0 C 4.929688 -0.03125 4.914062 -0.109375 4.90625 -0.234375 C 4.894531 -0.359375 4.890625 -0.503906 4.890625 -0.671875 C 4.890625 -0.835938 4.890625 -1.007812 4.890625 -1.1875 C 4.890625 -1.375 4.890625 -1.53125 4.890625 -1.65625 L 4.859375 -1.65625 C 4.734375 -1.394531 4.59375 -1.15625 4.4375 -0.9375 C 4.289062 -0.71875 4.125 -0.523438 3.9375 -0.359375 C 3.75 -0.203125 3.53125 -0.078125 3.28125 0.015625 C 3.039062 0.109375 2.765625 0.15625 2.453125 0.15625 C 2.109375 0.15625 1.800781 0.0976562 1.53125 -0.015625 C 1.257812 -0.128906 1.03125 -0.285156 0.84375 -0.484375 C 0.65625 -0.691406 0.507812 -0.9375 0.40625 -1.21875 C 0.3125 -1.5 0.265625 -1.804688 0.265625 -2.140625 C 0.265625 -2.703125 0.378906 -3.207031 0.609375 -3.65625 C 0.847656 -4.113281 1.160156 -4.5 1.546875 -4.8125 C 1.929688 -5.125 2.375 -5.363281 2.875 -5.53125 C 3.375 -5.707031 3.890625 -5.796875 4.421875 -5.796875 C 4.742188 -5.796875 5.085938 -5.753906 5.453125 -5.671875 C 5.828125 -5.597656 6.164062 -5.492188 6.46875 -5.359375 Z M 5.578125 -5.1875 C 5.410156 -5.332031 5.195312 -5.4375 4.9375 -5.5 C 4.675781 -5.5625 4.4375 -5.59375 4.21875 -5.59375 C 3.695312 -5.59375 3.25 -5.484375 2.875 -5.265625 C 2.5 -5.046875 2.1875 -4.757812 1.9375 -4.40625 C 1.695312 -4.050781 1.519531 -3.644531 1.40625 -3.1875 C 1.289062 -2.738281 1.234375 -2.289062 1.234375 -1.84375 C 1.234375 -1.632812 1.253906 -1.425781 1.296875 -1.21875 C 1.335938 -1.019531 1.410156 -0.835938 1.515625 -0.671875 C 1.617188 -0.515625 1.753906 -0.382812 1.921875 -0.28125 C 2.085938 -0.175781 2.289062 -0.125 2.53125 -0.125 C 3.007812 -0.125 3.410156 -0.257812 3.734375 -0.53125 C 4.066406 -0.8125 4.34375 -1.15625 4.5625 -1.5625 C 4.78125 -1.96875 4.953125 -2.398438 5.078125 -2.859375 C 5.203125 -3.316406 5.300781 -3.734375 5.375 -4.109375 Z M 5.578125 -5.1875 "/></g></g></g><g fill="#242424" fill-opacity="1"><g transform="translate(303.207098, 180.944473)"><g><path d="M 4.234375 -5.75 C 4.234375 -5.726562 4.226562 -5.695312 4.21875 -5.65625 L 3.796875 -4.859375 C 3.785156 -4.828125 3.765625 -4.8125 3.734375 -4.8125 C 3.722656 -4.8125 3.695312 -4.816406 3.65625 -4.828125 C 3.625 -4.847656 3.585938 -4.867188 3.546875 -4.890625 C 3.503906 -4.910156 3.453125 -4.925781 3.390625 -4.9375 C 3.335938 -4.957031 3.269531 -4.96875 3.1875 -4.96875 C 3.007812 -4.96875 2.84375 -4.910156 2.6875 -4.796875 C 2.53125 -4.679688 2.390625 -4.53125 2.265625 -4.34375 C 2.148438 -4.164062 2.046875 -3.957031 1.953125 -3.71875 C 1.859375 -3.488281 1.789062 -3.257812 1.75 -3.03125 L 1.65625 -2.546875 C 1.601562 -2.304688 1.554688 -2.023438 1.515625 -1.703125 C 1.472656 -1.378906 1.453125 -1.097656 1.453125 -0.859375 C 1.453125 -0.691406 1.472656 -0.546875 1.515625 -0.421875 C 1.566406 -0.296875 1.644531 -0.203125 1.75 -0.140625 C 1.820312 -0.109375 1.859375 -0.078125 1.859375 -0.046875 C 1.859375 -0.015625 1.832031 0 1.78125 0 L 0.65625 0 C 0.644531 -0.101562 0.628906 -0.1875 0.609375 -0.25 C 0.597656 -0.3125 0.585938 -0.367188 0.578125 -0.421875 C 0.566406 -0.472656 0.554688 -0.523438 0.546875 -0.578125 C 0.546875 -0.640625 0.546875 -0.71875 0.546875 -0.8125 C 0.546875 -0.957031 0.566406 -1.160156 0.609375 -1.421875 C 0.660156 -1.691406 0.707031 -1.953125 0.75 -2.203125 L 1.109375 -4.40625 C 1.128906 -4.539062 1.140625 -4.675781 1.140625 -4.8125 C 1.140625 -4.957031 1.113281 -5.054688 1.0625 -5.109375 C 1.019531 -5.171875 0.957031 -5.226562 0.875 -5.28125 C 0.832031 -5.320312 0.8125 -5.34375 0.8125 -5.34375 C 0.8125 -5.375 0.828125 -5.394531 0.859375 -5.40625 C 0.890625 -5.414062 0.925781 -5.425781 0.96875 -5.4375 L 2.0625 -5.625 L 1.8125 -3.96875 L 1.828125 -3.953125 C 2.117188 -4.566406 2.472656 -5.023438 2.890625 -5.328125 C 3.304688 -5.640625 3.722656 -5.796875 4.140625 -5.796875 C 4.203125 -5.796875 4.234375 -5.78125 4.234375 -5.75 Z M 4.234375 -5.75 "/></g></g></g><g fill="#242424" fill-opacity="1"><g transform="translate(307.214624, 180.944473)"><g><path d="M 5.8125 -4.84375 C 5.8125 -4.519531 5.691406 -4.253906 5.453125 -4.046875 C 5.210938 -3.847656 4.921875 -3.691406 4.578125 -3.578125 C 4.242188 -3.460938 3.898438 -3.378906 3.546875 -3.328125 C 3.191406 -3.285156 2.898438 -3.265625 2.671875 -3.265625 C 2.460938 -3.265625 2.253906 -3.269531 2.046875 -3.28125 C 1.835938 -3.300781 1.628906 -3.34375 1.421875 -3.40625 C 1.347656 -3.15625 1.296875 -2.921875 1.265625 -2.703125 C 1.242188 -2.484375 1.234375 -2.328125 1.234375 -2.234375 C 1.234375 -1.929688 1.273438 -1.644531 1.359375 -1.375 C 1.453125 -1.113281 1.578125 -0.882812 1.734375 -0.6875 C 1.890625 -0.488281 2.082031 -0.328125 2.3125 -0.203125 C 2.539062 -0.0859375 2.800781 -0.03125 3.09375 -0.03125 C 3.34375 -0.03125 3.578125 -0.0625 3.796875 -0.125 C 4.015625 -0.195312 4.21875 -0.285156 4.40625 -0.390625 C 4.59375 -0.492188 4.765625 -0.617188 4.921875 -0.765625 C 5.085938 -0.910156 5.25 -1.0625 5.40625 -1.21875 L 5.5625 -1.046875 C 5.195312 -0.660156 4.816406 -0.363281 4.421875 -0.15625 C 4.023438 0.0507812 3.554688 0.15625 3.015625 0.15625 C 2.628906 0.15625 2.265625 0.0976562 1.921875 -0.015625 C 1.585938 -0.140625 1.296875 -0.304688 1.046875 -0.515625 C 0.804688 -0.734375 0.613281 -0.984375 0.46875 -1.265625 C 0.332031 -1.554688 0.265625 -1.863281 0.265625 -2.1875 C 0.265625 -2.675781 0.367188 -3.140625 0.578125 -3.578125 C 0.796875 -4.015625 1.082031 -4.394531 1.4375 -4.71875 C 1.789062 -5.050781 2.191406 -5.3125 2.640625 -5.5 C 3.097656 -5.695312 3.566406 -5.796875 4.046875 -5.796875 C 4.203125 -5.796875 4.378906 -5.785156 4.578125 -5.765625 C 4.785156 -5.742188 4.976562 -5.695312 5.15625 -5.625 C 5.34375 -5.550781 5.5 -5.453125 5.625 -5.328125 C 5.75 -5.203125 5.8125 -5.039062 5.8125 -4.84375 Z M 4.84375 -4.890625 C 4.84375 -5.023438 4.8125 -5.140625 4.75 -5.234375 C 4.695312 -5.328125 4.628906 -5.398438 4.546875 -5.453125 C 4.460938 -5.503906 4.363281 -5.539062 4.25 -5.5625 C 4.132812 -5.582031 4.015625 -5.59375 3.890625 -5.59375 C 3.609375 -5.59375 3.335938 -5.539062 3.078125 -5.4375 C 2.828125 -5.332031 2.597656 -5.191406 2.390625 -5.015625 C 2.191406 -4.835938 2.019531 -4.625 1.875 -4.375 C 1.726562 -4.132812 1.617188 -3.878906 1.546875 -3.609375 C 1.703125 -3.566406 1.863281 -3.53125 2.03125 -3.5 C 2.195312 -3.476562 2.359375 -3.46875 2.515625 -3.46875 C 2.753906 -3.46875 3.003906 -3.484375 3.265625 -3.515625 C 3.535156 -3.554688 3.785156 -3.628906 4.015625 -3.734375 C 4.253906 -3.835938 4.453125 -3.976562 4.609375 -4.15625 C 4.765625 -4.34375 4.84375 -4.585938 4.84375 -4.890625 Z M 4.84375 -4.890625 "/></g></g></g><g fill="#242424" fill-opacity="1"><g transform="translate(313.236744, 180.944473)"><g><path d="M 5.265625 -4.5 C 5.242188 -4.425781 5.222656 -4.390625 5.203125 -4.390625 C 5.191406 -4.390625 5.175781 -4.40625 5.15625 -4.4375 C 4.96875 -4.84375 4.738281 -5.132812 4.46875 -5.3125 C 4.207031 -5.5 3.851562 -5.59375 3.40625 -5.59375 C 3.21875 -5.59375 3.007812 -5.566406 2.78125 -5.515625 C 2.5625 -5.472656 2.351562 -5.398438 2.15625 -5.296875 C 1.96875 -5.203125 1.804688 -5.070312 1.671875 -4.90625 C 1.546875 -4.75 1.484375 -4.554688 1.484375 -4.328125 C 1.484375 -4.085938 1.535156 -3.898438 1.640625 -3.765625 C 1.753906 -3.628906 1.90625 -3.519531 2.09375 -3.4375 C 2.28125 -3.363281 2.488281 -3.3125 2.71875 -3.28125 C 2.957031 -3.25 3.195312 -3.21875 3.4375 -3.1875 C 3.6875 -3.164062 3.925781 -3.132812 4.15625 -3.09375 C 4.394531 -3.050781 4.601562 -2.984375 4.78125 -2.890625 C 4.96875 -2.804688 5.117188 -2.679688 5.234375 -2.515625 C 5.347656 -2.359375 5.40625 -2.140625 5.40625 -1.859375 C 5.40625 -1.460938 5.289062 -1.132812 5.0625 -0.875 C 4.84375 -0.613281 4.566406 -0.40625 4.234375 -0.25 C 3.898438 -0.09375 3.546875 0.0078125 3.171875 0.0625 C 2.804688 0.125 2.472656 0.15625 2.171875 0.15625 C 1.753906 0.15625 1.335938 0.113281 0.921875 0.03125 C 0.503906 -0.0507812 0.113281 -0.195312 -0.25 -0.40625 L 0.15625 -1.328125 C 0.164062 -1.347656 0.175781 -1.367188 0.1875 -1.390625 C 0.207031 -1.410156 0.222656 -1.421875 0.234375 -1.421875 C 0.253906 -1.421875 0.273438 -1.394531 0.296875 -1.34375 C 0.316406 -1.300781 0.328125 -1.242188 0.328125 -1.171875 C 0.359375 -0.972656 0.4375 -0.800781 0.5625 -0.65625 C 0.695312 -0.519531 0.863281 -0.40625 1.0625 -0.3125 C 1.257812 -0.21875 1.472656 -0.144531 1.703125 -0.09375 C 1.929688 -0.0507812 2.15625 -0.03125 2.375 -0.03125 C 2.59375 -0.03125 2.828125 -0.0546875 3.078125 -0.109375 C 3.335938 -0.160156 3.578125 -0.242188 3.796875 -0.359375 C 4.023438 -0.472656 4.21875 -0.625 4.375 -0.8125 C 4.53125 -1.007812 4.609375 -1.242188 4.609375 -1.515625 C 4.609375 -1.710938 4.550781 -1.863281 4.4375 -1.96875 C 4.320312 -2.082031 4.171875 -2.171875 3.984375 -2.234375 C 3.804688 -2.304688 3.597656 -2.359375 3.359375 -2.390625 C 3.128906 -2.421875 2.890625 -2.453125 2.640625 -2.484375 C 2.398438 -2.515625 2.160156 -2.550781 1.921875 -2.59375 C 1.679688 -2.644531 1.46875 -2.722656 1.28125 -2.828125 C 1.101562 -2.929688 0.957031 -3.066406 0.84375 -3.234375 C 0.738281 -3.410156 0.6875 -3.628906 0.6875 -3.890625 C 0.6875 -4.273438 0.78125 -4.585938 0.96875 -4.828125 C 1.164062 -5.078125 1.410156 -5.269531 1.703125 -5.40625 C 1.992188 -5.550781 2.304688 -5.648438 2.640625 -5.703125 C 2.984375 -5.765625 3.304688 -5.796875 3.609375 -5.796875 C 3.953125 -5.796875 4.3125 -5.757812 4.6875 -5.6875 C 5.0625 -5.625 5.375 -5.53125 5.625 -5.40625 Z M 5.265625 -4.5 "/></g></g></g><path stroke-linecap="round" transform="matrix(0.75, -0.000000000000000279, 0.000000000000000279, 0.75, 187.390466, 179.00971)" fill="none" stroke-linejoin="miter" d="M 0.500212 0.49747 L 75.588759 0.49747 " stroke="#000000" stroke-width="1" stroke-opacity="1" stroke-miterlimit="4"/></svg>